<svg id="logo-hd-mathinf" xmlns="http://www.w3.org/2000/svg" viewBox="0 0 400 209.8"><defs><style>.cls-1{fill:#fff;}.cls-2{fill:#e80036;}.cls-3{fill:#5a0f09;}</style></defs><path class="cls-1" d="M234.57,219.8V10.1h.6V219.8Zm14.9-37.2c1,3.4,3,4.9,6.5,4.9,3,0,5.6-1.7,5.6-4.8,0-2.6-1-3.9-6.2-5.8-3.4-1.3-3.7-2.1-3.7-3.4a3.31,3.31,0,0,1,3.6-3.4,4.5,4.5,0,0,1,4.4,3.4l1.4-.4a5.82,5.82,0,0,0-5.9-4.4c-3.4,0-5.3,2-5.3,4.7,0,6.1,9.9,4.1,9.9,9a3.37,3.37,0,0,1-3.1,3.6h-.5c-2.9,0-4.5-1.2-5.2-4l-1.5.6Zm26.7,4.6v-1.4H267v-7.4h6.3V177H267v-6.7h8.8V169h-10.4v18.3Zm3.3,0h1.7V169h-1.7v18.2Zm5.1-16.9H290v16.9h1.7V170.3h5.4V169h-12.5v1.3Zm29.5,16.9v-1.4h-3V168.6H310l-4.1,1.3v1l3.5-.5v15.3h-3.1v1.4Zm1.7-3.4c1,2.5,3.2,3.6,6.2,3.6,3.6,0,6.2-1.6,6.2-5.4a4.65,4.65,0,0,0-3.5-4.6c2.1-1,2.9-2.2,2.9-4.3,0-3.4-3.2-4.4-5.5-4.4a6.78,6.78,0,0,0-5.5,2.9l1.2.9c1.3-1.6,2.5-2.4,4.2-2.4,2.5,0,4,1,4,3.2,0,2.4-1.7,3.6-5,3.6h-1.4v1.4h1.7c3.5,0,5.3,1.3,5.3,3.9s-1.4,4-4.5,4a4.79,4.79,0,0,1-4.9-3l-1.4.6Zm21.9-15.1c-3.5,0-5.7,1.6-5.7,4.6,0,2,1.2,3.5,3.5,4.3-3.1,1.4-4.2,3.1-4.2,4.9,0,3.6,2.6,5,6.4,5s6.4-1.3,6.4-5c0-1.8-1.1-3.5-4.2-4.9,2.3-.8,3.5-2.3,3.5-4.3,0-3-2.2-4.6-5.7-4.6Zm-4.8,13.8c0-2,1.8-3,4.8-4.2,3,1.2,4.8,2.2,4.8,4.2,0,2.5-2.1,3.6-4.8,3.6S332.87,185,332.87,182.5Zm.8-9.3c0-2.1,1.7-3.2,4-3.2s4,1,4,3.2c0,2-1.8,3.1-4,3.7C335.37,176.3,333.67,175.2,333.67,173.2Zm24.7-3a7.32,7.32,0,0,0-4.3-1.6c-5.2,0-7.3,5.4-7.3,10,0,4.2,1.2,8.7,6.3,8.7,3.3,0,6.2-2.2,6.2-5.7s-2.1-6-5.9-6a7,7,0,0,0-4.9,2.4c0-3.5,1.4-8.1,5.6-8.1a4.47,4.47,0,0,1,3.6,1.4l.7-1.1Zm-.9,11.4c0,2.8-1.6,4.6-4.5,4.6s-4.6-2.1-4.6-5.4a5.34,5.34,0,0,1,4.6-3.6,4.15,4.15,0,0,1,4.5,3.8v.6Zm-106.9-37.8h8.8l-9.5,15.6v1.4h11.8v-1.4H252l9.5-15.5v-1.4h-10.8l-.1,1.3Zm14.7-1.4v12.3c0,4.1,2.2,6.2,6.6,6.2s6.6-2.1,6.6-6.2V142.4h-1.7v12.5c0,3.5-1.7,4.7-4.9,4.7s-4.9-1.2-4.9-4.7V142.4Zm18.2,18.3h1.7v-6.1l3.5-4,5.8,10.1h1.9l-6.6-11.3,5.9-7h-2l-8.4,9.9v-9.9h-1.7l-.1,18.3ZM299,142.4v12.3c0,4.1,2.2,6.2,6.6,6.2s6.6-2.1,6.6-6.2V142.4h-1.7v12.5c0,3.5-1.7,4.7-4.9,4.7s-4.9-1.2-4.9-4.7V142.4Zm18.3,18.3H319V143.8l9.8,16.9h1.7V142.4h-1.7v15.2h0l-8.7-15.2h-2.8v18.3Zm19.9,0v-8.8h6.6v-1.4h-6.6v-6.7h9.1v-1.4h-10.7v18.3Zm10.7-16.9h5.4v16.9H355V143.8h5.4v-1.4h-12.5v1.4Zm-94.4-9.6V126h7.4v8.2h3.6V115.1h-3.6v7.6h-7.4v-7.6h-3.6v19.1Zm28.3,0v-3.1h-9.3v-5.3H279v-3.1h-6.5v-4.6h9V115h-12.6v19.1l12.9.1Zm7.2,0V115.1h-3.6v19.1Zm4.7,0H300c5,0,8.5-2.8,8.6-9.5s-3.5-9.5-8.6-9.5h-6.3v19Zm3.6-16h2.4c4.2,0,5.2,3.1,5.2,6.5s-1,6.5-5.2,6.5h-2.4v-13Zm27.1,16v-3.1h-9.3v-5.3h6.5v-3.1h-6.5v-4.6h9V115h-12.6v19.1l12.9.1Zm15,0v-3.1h-8.3v-16h-3.6v19.1Zm2.7,0h7c4.9,0,7-2.1,7-5s-.9-4-3.3-5a4.33,4.33,0,0,0,2.9-4.3c-.2-3.4-2.7-4.7-6.5-4.7h-7.1v19Zm3.7-8.5h3.6c2.1,0,3,1,3,2.8s-.9,2.8-3,2.8h-3.6Zm0-7.7h3.6c1.8,0,2.6,1,2.6,2.3a2.3,2.3,0,0,1-2.6,2.3h-3.6V118Zm27,16.2v-3.1h-9.3v-5.3H370v-3.1h-6.5v-4.6h9V115h-12.6v19.1l12.9.1Zm6.7,0v-7.8h3.2l3.6,7.8h4l-4.2-8.5a4.66,4.66,0,0,0,3.5-4.9c0-3.2-1.8-5.7-6.1-5.7h-7.6v19.1Zm0-16.2h3.3c2,0,3.1.9,3.1,2.7s-.9,2.7-3.7,2.7h-2.7V118Zm27.6,1.7a6.88,6.88,0,0,0-6.9-4.9c-6.1,0-8,5.2-8,10.1,0,5.4,2.4,9.5,7.6,9.5a6,6,0,0,0,5-2.2v2h2.6v-9.6h-7.1v3.1h3.6a3.8,3.8,0,0,1-3.8,3.8h-.2c-2.5,0-4-2.5-4-6.6s1.3-6.9,4-6.9c1.9,0,3,.8,3.8,2.7l3.4-1ZM260.77,99.9c0,3.1-1.2,4.2-3.7,4.2s-3.7-1.1-3.7-4.2V87.8h-3.6V99.7c0,5.6,3.4,7.4,7.3,7.4s7.3-1.8,7.3-7.4V87.8h-3.6V99.9Zm11.5,7V93.3h0l7.8,13.6h3.5V87.8h-3.4v13h0l-7.5-13h-3.8v19.1Zm19.7,0V87.8h-3.6v19.1Zm7.9,0H304l5-19.1h-3.6l-3.5,14.1h0l-3.4-14.1h-3.6l5,19.1Zm24.5,0v-3.1h-9.3V98.5h6.5V95.4h-6.5V90.8h9V87.7h-12.6v19.1Zm6.7,0V99.1h3.1l3.6,7.8h4l-4.2-8.5a4.73,4.73,0,0,0,3.5-4.9c0-3.2-1.8-5.7-6.1-5.7h-7.6v19.1Zm0-16.1h3.3c2,0,3.1.9,3.1,2.7s-.9,2.7-3.7,2.7h-2.7V90.8Zm26.3,1a7,7,0,0,0-6.7-4.3c-3.3,0-6.2,1.9-6.2,5.3,0,5.9,9.8,5.1,9.8,8.9,0,1.8-1.4,2.5-3.2,2.5-2.1,0-3.3-1.2-4.1-3l-3,1.3a7.54,7.54,0,0,0,7.1,4.5c4.2,0,6.7-2,6.7-5.9,0-6.2-9.8-5.5-9.8-8.8,0-1.5,1.1-2.1,2.7-2.1a3.63,3.63,0,0,1,3.4,2.5l3.3-.9Zm8,15v-19h-3.6v19.1Zm3.1-19v3.1h5v16h3.6v-16h5v-3Zm20.9,3.6h0l2.2,8.3h-4.5l2.3-8.3Zm-7.8,15.4h3.6l1.1-4.1h6l1,4.1h3.6l-5.4-19.1H387l-5.4,19.1Zm3.6-23.4v3.1h3.2V83.4Zm5,0v3.1h3.2V83.4Zm6.2,4.4v3.1h5v16H405v-16h5V87.8Z" transform="translate(-9.97 -10.1)"/><circle class="cls-2" cx="104.9" cy="104.9" r="104.9"/><path class="cls-3" d="M103.37,59.8h1.2V58.6h1.2V57.4h-1.2V56.2h-1.2v1.2h-1.2v1.2h1.1v1.2Zm20.4,67h1.1v-.9h.9v-1.2h-.9v-.9h-1.1v.9h-.9v1.2h.9Zm-24.7-67h1.1V58.6h1.1V57.4h-1.1V56.2h-1.1v1.2h-1.2v1.2h1.2Zm25.7,101.3c1.3,8.4,1.6,16.2,2.5,20.3l1.1-.3c-.9-3.8-1.2-11.8-2.5-20.2Zm-11.5-45.8a2.56,2.56,0,0,0-2.9.9l.4.4a2.2,2.2,0,0,1,1.6-.9,1.92,1.92,0,0,1,1.8,1.7v1.3h.6v-1.4a3.1,3.1,0,0,0-1.5-2Zm3.4,0a2.58,2.58,0,0,0-1.5,2v1.4h.6v-1.4a1.93,1.93,0,0,1,1.8-1.7,2.2,2.2,0,0,1,1.6.9l.4-.4a2.62,2.62,0,0,0-2.9-.8Zm1,1.3c-1,0-1.4.4-1.4.8h1.1c-.2.1-.3.2-.3.4a.5.5,0,1,0,1,0c0-.2-.1-.3-.2-.3H119a1.32,1.32,0,0,0-1.3-.9Zm22.5-36.1L139,78.7l-1.1,1.8,1.1,1.8Zm-1.1,40.7a2.8,2.8,0,1,0,0-5.6,2.8,2.8,0,1,0,0,5.6Zm0-5a2.2,2.2,0,1,1-2.2,2.2,2,2,0,0,1,2.2-2.2c-.1-.1,0-.1,0,0Zm-.6,3.7h1.1V119h.9v-1.2h-.9v-.9h-1.1v.9h-.9V119h.9Zm-20.1-60h1.1V58.7h1.2V57.5h-1.2V56.3h-1.1v1.2h-1.2v1.2h1.2Zm-4,0h1.1V58.7h1.1V57.5h-1.1V56.3h-1.2v1.2h-1.1v1.2h1.2Zm-4.1,0h1.1V58.7h1.2V57.5h-1.2V56.3h-1.2v1.2H109v1.2h1.1Zm2.2,56.7c-1,0-1.4.4-1.4.8h1.2c-.2.1-.3.2-.3.4a.5.5,0,0,0,1,0c0-.2-.1-.3-.2-.3h1.1a1.18,1.18,0,0,0-1.4-.9Zm10.6,41.2a3.55,3.55,0,0,0-.2-1,.87.87,0,0,0-.8-.6,2.38,2.38,0,0,0-1.1.6l-.9.9a5.37,5.37,0,0,1-3.8,1.5,5.46,5.46,0,0,1-3.3-1.1,3.6,3.6,0,0,0-2-1.1,1.2,1.2,0,0,0-1,.7,3.4,3.4,0,0,0-.2,1.4v.1c0,.4.2,1.6.5,3.4.5,2.7,1.2,6.6,2,10.1.4,1.7.8,3.4,1.2,4.7a13.43,13.43,0,0,0,1.2,3,2.72,2.72,0,0,0,2.1,1.2,2.77,2.77,0,0,0,2.5-2.2c.3-1,1.7-7.5,2.7-13.3V166c.3-1.7.6-3.4.7-4.8.1-1,.2-2.1.2-3.1.2-.1.2-.2.2-.3Zm-4.9,21.3c-.3,1-.9,1.4-1.4,1.4a1.41,1.41,0,0,1-1.2-.8l-.3-.6a23,23,0,0,0,4-6.1l.3-.7c-.6,3.5-1.2,6.2-1.4,6.8Zm.1-6.5a27.33,27.33,0,0,1-3.4,5.4c-.2-.7-.5-1.4-.7-2.3v-.1a27.27,27.27,0,0,0,6.5-8.9,30.41,30.41,0,0,1-2.4,5.9Zm3.4-11.7a29.55,29.55,0,0,1-7.9,13.4c-.7-2.8-1.4-6.1-1.9-8.9s-1-5.3-1-6a15.14,15.14,0,0,0,4,6.5l.8-.9a9.14,9.14,0,0,1-2-2.4,5.54,5.54,0,0,0,1.8.2,7.67,7.67,0,0,0,5.1-1.7l-.8-.8a7.36,7.36,0,0,1-4.3,1.4,4.1,4.1,0,0,1-2.8-.9,9,9,0,0,1-.8-2.3l.4.3a6.28,6.28,0,0,0,4,1.4,6.6,6.6,0,0,0,4.6-1.9,7.64,7.64,0,0,1,.9-.9l.1-.1v.6a26.61,26.61,0,0,1-.2,3Zm-15.5-3.7c-1,5.9-2,15-6.2,22.7l1,.6c4.4-7.9,5.4-17.2,6.3-23.1Zm1.2,12.1c-.2,4.8-.8,9.6-2.7,11.8l.9.8c2.3-2.7,2.7-7.6,3-12.5s.1-9.7.7-11.7l-1.1-.4c-.7,2.5-.6,7.2-.8,12ZM112.47,41l-1.1-1.8-1.1,1.8,1.1,1.8Zm29.6-18.7-2.5-.8-.8,2.8-2.8-.8-.8,2.5,2.8.8-.8,2.8,2.5.8.8-2.8,2.8.8.7-2.5-2.8-.8Zm17,76.4L158,97l-1.1,1.8,1.1,1.8Zm50.1,1.9.1.7-6.5.8a1.07,1.07,0,0,1-.6-.2h-.1c-.3.9-.7,1.8-1.1,2.7l2,1.5.2-.3c-.7-.4-.5-.8,0-1.8l6.4-.8.2,1.4.9.3-.2-1.8,2.7-.4v-.2a6.71,6.71,0,0,1-3.5-1.9Zm1.3-17.9-2.3-.9a4.35,4.35,0,0,1-.7.4c.7.5,1.4,1,2.1,1.4a2.58,2.58,0,0,0,.9-.9Zm-62.4,63.7v1l2.6-1.7,1.1,1.4-3,2.3.5.8,3.1-2.4.7.9-1.2,1,.6.6,2-1.6-.9-1.1,1.7-1.6-.8-2.3.6-.4v-.6h-1.6l.9,3-.6.5-1.1-1.3V142h-2.4v.8l.5.6-.5.4-1.6-1.9h-.8v.5l2.1,2.4Zm-.4-47.7,1.1,1.8,1.1-1.8-1.1-1.8Zm62.5,9.2-6.7.3c-.5,0-.6-.3-.6-.3h-.1l-1.2,1.8L203,111h.1a1.4,1.4,0,0,1,.3-.9l6.8-.3a.76.76,0,0,1,.5.2h.1l1.3-1.7a8.64,8.64,0,0,1-1.4-1.3h-.1c.1,0,.2.9-.4.9Zm-10.6-18.8h0a22.88,22.88,0,0,1-.8,2.8l2.2,1.2.2-.3c-.8-.3-.6-.7-.3-1.8l6.2-1.7.4,1.4,1,.2-.5-1.8,2.6-.7-.1-.2a7.33,7.33,0,0,1-3.8-1.4l-.4.1.2.7-6.3,1.7c-.2,0-.5,0-.6-.2Zm2.5,11.8h0c0-.4.1-1,.2-1l6.9-1.4a.48.48,0,0,1,.6.2h.1a10.68,10.68,0,0,1,.3-2.5c-1.2-.5-1.5-2.9-3.2-2.6l-5.5,1.1c-.2,0-.4,0-.5-.2h-.1l-.9,2.2,1.4,1.2-.9,1.8c.5.4,1.1.8,1.6,1.2Zm-.3-4.4,6.8-1.3a8.81,8.81,0,0,0-.2,1.7l-6.3,1.3-.6-.5Zm4.8,21.7a.55.55,0,0,1,.5.3h.1l.9-1.9,2.6,1.8a11.22,11.22,0,0,1,1.6-2.2,16.92,16.92,0,0,1-1.3-3.1l-2.8-.1a.86.86,0,0,1-.6-.3h-.1l-1.2,2.1-3.3-2.2a7,7,0,0,1-1.3,2.4,18.19,18.19,0,0,1,1.6,3.1Zm1.6-3.4,3.1.1.1.1c-.6.7-1.2,1.4-1.7,2.1l-2-1.5Zm-5.3,1.3a12.66,12.66,0,0,0,1.3-2.2l2.6,1.8-.4.8-3.4-.1Zm-26.8-15.6,1.1-1.8-1.1-1.8L175,98.7Zm-75.7,112.3.3,1.2,1.9-1.6v-.8a16.37,16.37,0,0,0-2.2,1.2Zm65.4-114.1,1.1,1.8,1.1-1.8-1.1-1.8ZM99.17,208.4c.1-.4,1.1-6,1.3-6.6s.4-.5.4-.5v-.1l-1.4-1.6-1.6,1.1v.1a2.18,2.18,0,0,1,.8.5s-1.2,6.3-1.3,6.7a.43.43,0,0,1-.4.4v.1l1.4,1.6A9.06,9.06,0,0,1,100,209v-.1c.1.2-.9,0-.8-.5Zm12,1.6s.5-6.1.5-6.5a.66.66,0,0,1,.4-.5v-.1l-2.3-1.8-3.2,1.8L106,210a.55.55,0,0,1-.3.5v.1c1.8,1.4,3.2,2.7,5,4.3a4.71,4.71,0,0,1,1.5-1.3v-.1c-.5,0-3-2.3-3-2.3Zm-3.4-.2.6-7.6h.1l1.4,1.1-.6,7.2-.4.2Zm-5.9-8.4h0a1.56,1.56,0,0,1,.8.6s-.9,6.4-1,6.7a.85.85,0,0,1-.3.5v.1l1.4,1.6a9.06,9.06,0,0,1,1.6-1.1v-.1s-1-.1-.9-.7c0-.4.9-6.1,1-6.6s.4-.6.4-.6v-.1l-1.5-1.5Zm17.2,1.8a.55.55,0,0,1,.3-.5v-.1l-2.3-1.3a36.17,36.17,0,0,1-3.2,2.2s.1,6.2.1,6.6a.71.71,0,0,1-.3.6v.1l1.4,1.1,1.3-1.3v-.1l-.6-.4-.1-7.4.3-.2,1.3.8s.1,6.1.1,6.6-.3.6-.3.6v.1l1.7,1.2,1.3-1.4v-.1a1.8,1.8,0,0,1-.9-.4c0,.1,0-6.4-.1-6.7Zm31-7-.3-.2-.5.7a4.59,4.59,0,0,1-3.6,2l-5-.1a4.19,4.19,0,0,1-.2,2.7H143l-.4.6a5.4,5.4,0,0,1-4.2,2.4h-2.8a2.15,2.15,0,0,1,.2,1.1c0,1-.4,1.2-.4,1.2h2.3a2.82,2.82,0,0,0,1.5-.4,6.86,6.86,0,0,0-1.4,3.4v1.2a7,7,0,0,1,2.9-.2v-2.3a9,9,0,0,1,.9-4l1.9-2.9a6.53,6.53,0,0,0,3.6-1v4.9a3.21,3.21,0,0,1-2.1,1h-2.5a8.1,8.1,0,0,1,0,2.2,4.68,4.68,0,0,0,2.6-.5,7.41,7.41,0,0,0-.1,2.1,4.11,4.11,0,0,1,2.2,0v-3a3.89,3.89,0,0,1,.2-1.5h2.8V205c-.5,0-.8-.4-.8-1.6v-2.2c0-1.5-.1-3.5.8-4.8Zm-17.6,9.3h0l-2.3-.9,1.7-3.6a6.22,6.22,0,0,1-2.6-.9,18.6,18.6,0,0,1-2.8,2.1l.4,3.1c0,.2,0,.4-.2.5v.1l2,.6-1.4,2.9a7,7,0,0,1,2.4,1.3,17.48,17.48,0,0,1,2.9-1.8s-.3-2.4-.4-2.8l.3-.6Zm-3.8-.6-.5-3.4.2-.2a11.72,11.72,0,0,0,2.4.9l-1.3,2.9Zm2.1,4.6a9.21,9.21,0,0,0-2.4-1.3l1.1-2.2.9.4.4,3Zm-6.2-.1s-.3-6.1-.4-6.5a.71.71,0,0,1,.3-.6v-.1A11.51,11.51,0,0,1,122,201l-1.6,1.9.3.2c.5-.7.8-.4,1.8.1l.4,6.4-1.5.1-.3.9,1.9-.1.1,2.7h.2a6.94,6.94,0,0,1,2.2-3.4v-.4Zm42.7-175,.6-1-1-.7-.6,1-.9-.6-.6,1,1,.6-.6,1,1,.7.6-1,1,.6.6-1Zm31.8,53.4a1.7,1.7,0,0,1,0-1l6.4-2.4a.47.47,0,0,1,.6.1h.1l.7-2a8.86,8.86,0,0,1-1.7-.8h-.1s.4.9-.2,1.1l-6.2,2.3c-.5.2-.7-.1-.7-.1h-.1l-.6,2,1.8.8Zm1.2,71a4.09,4.09,0,0,0,.3-2.2,6.61,6.61,0,0,1-2.8,0v2.8a4.49,4.49,0,0,1-.4,2.3h-2.5l.1,5.1a5.29,5.29,0,0,1-.8,3.2H191a5.89,5.89,0,0,0-3.4,1,8.69,8.69,0,0,0,1.1-4.1v-3.1a3.86,3.86,0,0,1,2-.8h2.4a11.29,11.29,0,0,1,0-2.6,6.8,6.8,0,0,0-2,.2,4.09,4.09,0,0,0,.3-2.2,6.61,6.61,0,0,1-2.8,0v2.8a4.88,4.88,0,0,1-.4,2.4l-.1.1a2.64,2.64,0,0,1-1.9.7v4.4c0,.9.2,3.2-.4,4.4l-1.5,2.2.4.2s1.5-2.9,4.5-2.9h6.7a4.3,4.3,0,0,1,.2-2.5h-1.3a19.2,19.2,0,0,0,1.4-1.5,4.42,4.42,0,0,1,2.4-1.1H201a11.29,11.29,0,0,1,0-2.6c-1.8,0-2.4.1-3.4,1.3a3,3,0,0,0,.2-1.3v-3a3.86,3.86,0,0,1,2-.8h2.4a11.29,11.29,0,0,1,0-2.6,6.15,6.15,0,0,0-1.9.2Zm-6.5-85.3,5.7-3.1.4.1a21.16,21.16,0,0,1-1.1,2.1v.1a6.28,6.28,0,0,1,1.9.3h.1l1-2.2-1.7-.6.4-1.9a6.36,6.36,0,0,1-1.8-.6h-.1c.2.4.3.9.1,1l-5.9,3.2a.63.63,0,0,1-.6,0l-.1.1a14.08,14.08,0,0,1-.1,2.9l2.4.7.1-.3c-.8-.3-.8-.7-.7-1.8Zm17.3,52.5a3.4,3.4,0,0,0,.3-2,5.7,5.7,0,0,1-2.6,0v2.5a3.78,3.78,0,0,1-.4,2.1,5.38,5.38,0,0,1-2.8.8v.4c.6,0,.8.9.8,1.5v.9c0,1.3,0,3.8-.6,4.7l-.8,1.2-3.6,5.4-2,3v-6.9l.9-1.4a3.47,3.47,0,0,1,2.2-1h1.6a8.84,8.84,0,0,1,0-2.3,4.87,4.87,0,0,0-1.2.1,5.38,5.38,0,0,0,.4-2.2,6.61,6.61,0,0,1-2.8,0v2.7a4.49,4.49,0,0,1-.4,2.3l-.9,1.3c-.3.3-1.1.9-3.1.9v.4c.6,0,.9.9.9,1.5v6.7c0,1.3,0,3.8-.6,4.7-.3.4-.8,1.2-.8,1.2l.3.2s.7-.9,1.5-2.1l.2-.4a5.78,5.78,0,0,1,4.5-2.5h2.4a2.43,2.43,0,0,1,.9-2.1c-2.9,0-4.6-.3-6.3,1.8l-.2.2a6.72,6.72,0,0,0,.4-2.4l.5-.7a6.65,6.65,0,0,1,5-2.7h2.7a3,3,0,0,1,.9-2.4,2.87,2.87,0,0,1,1.8-.7h2.1a8.1,8.1,0,0,1,0-2.2,5.54,5.54,0,0,0-1.8.2,3.08,3.08,0,0,0,.3-1.9,5.28,5.28,0,0,1-2.5,0v2.4a3.08,3.08,0,0,1-.4,2.1l-.1.1c-2.2,0-3.9-.1-5.3.8l2.7-4.1.1-.2,1.1-1.7.2-.2v-.1l.2-.3a4.12,4.12,0,0,1,2.4-1.1h2.6a10.45,10.45,0,0,1,0-2.5c-1.9,0-2.8.2-3.9,1.6a8,8,0,0,0,.6-3v-2a4.9,4.9,0,0,1,2.4-.8h1.6a8.85,8.85,0,0,1,0-2.3c-.3.1-.9.3-1.4.5Zm-20.5-58.4,2-1.3a28.47,28.47,0,0,1,3.9,1.1h.1l1.6-3.1a17.48,17.48,0,0,1-2.9-1.8l-5.6,3.6a.64.64,0,0,1-.6,0H189a21.14,21.14,0,0,1,.2,3.5l2.4.5v-.4c-.9,0-.9-.7-1-2.1Zm5.8-3.8-1.3,2.7-2-.5Zm3.9,17.4a.64.64,0,0,1,.6,0h.1V79.1l3.1.6a8.76,8.76,0,0,1,.6-2.7,13.66,13.66,0,0,1-2.5-2.3l-2.6,1.1c-.2.1-.5.1-.6-.1h-.1l-.2,2.4-3.9-.7a8.78,8.78,0,0,1-.1,2.8,14.25,14.25,0,0,1,2.8,2.2Zm0-3.7,2.8-1.2.1.1a11.79,11.79,0,0,0-.6,2.7l-2.5-.5Zm-4,3.5-.2-.2a11.53,11.53,0,0,0,.3-2.6l3.1.5v.9Zm-9.1,49.8h-1.1v.9h-.9v1.1h.9v.9h1.1v-.9h.9v-1.1h-.9Zm26.5-22.7s-.6.1-.7.1a15.58,15.58,0,0,0,1.6,2,2.38,2.38,0,0,0,1.1-.6ZM115,10.1A104.85,104.85,0,1,0,219.77,115h0A105,105,0,0,0,115,10.1Zm11.2,23.2c.9.1,1.8.3,2.7.4v6l-2.7-4.1Zm3.7,157.3-1,.9v1.1H130v1.2h-1.1v1.1h-1.2v-1.1h-1.1v-1.2h1.1v-1.1l-1-.9h-3.5l-1,.9v1.1h1.1v1.2h-1.1v1.1H121v-1.1h-1.1v-1.2H121v-1.1l-1-.9h-3.4l-1,.9v1.1h1.1v1.2h-1.1v1.1h-1.2v-1.1h-1.1v-1.2h1.1v-1.1l-1-.9h-3.5l-1,.9v1.1H110v1.2h-1.1v1.1h-1.2v-1.1h-1.1v-1.2h1.1v-1.1l-1-.9h-3.5l-1,.9v1.1h1.1v1.2h-1.1v1.1H101v-1.1h-1.1v-1.2H101v-1.1l-1-.9H90c.4.4,3.5,3.1,5.1,4.5a77.55,77.55,0,0,1-8.2-2.5v-1.5l.6-.6,2-1.8h17.9a2.7,2.7,0,0,0,1.7,1h.3a3.75,3.75,0,0,0,1.1-.1l1-.3c.3-.2.5-.3.8-.5h8.2a2.18,2.18,0,0,0,.5.4,4,4,0,0,0,2.3.8,4.14,4.14,0,0,0,1.9-.5,2,2,0,0,0,.6-.7h14.3l2.6,2.2v1.6l-.6.2a66.1,66.1,0,0,1-7.6,2.2l4.4-4.6Zm1.2,5.4a84.1,84.1,0,0,1-32.4,0ZM106.87,55.4v5.1H96.77V55.4Zm-6-1.2V46a1.49,1.49,0,0,1,.4-.9,1.28,1.28,0,0,1,1-.4,1.32,1.32,0,0,1,1.3,1.3v8.2Zm3.8-8.2a1.69,1.69,0,0,1,.3-1,1,1,0,0,1,1.5.1,1.8,1.8,0,0,1,.4.9v8.2h-2.1l-.1-8.2Zm10.2,9.4h6.3v5.1h-12.6v-5Zm-6.3-1.2V46a1.29,1.29,0,0,1,1.1-1.3.75.75,0,0,1,.7.4,1.8,1.8,0,0,1,.4.9v8.2Zm3.3,0V46a1.2,1.2,0,1,1,2.4,0v8.2Zm3.6,0V46a1.2,1.2,0,0,1,2.4-.2v8.4Zm-.6,39.5h0a14.2,14.2,0,0,0-3.6.4l3.6-5.5,3.6,5.5a14.72,14.72,0,0,0-3.6-.4Zm3,1.4v6.2a9.86,9.86,0,0,0-2.4-.3V94.9a19.42,19.42,0,0,1,2.4.2Zm-3.6-.2V101a12.59,12.59,0,0,0-2.7.4V95.2a12.41,12.41,0,0,1,2.7-.3Zm.6-8.4-5.2,8a3,3,0,0,0-1,.4V92.8l6.3-9.6,6.3,9.6V95a4.18,4.18,0,0,1-1-.4Zm0-8.8,6.3,9.5v3.4L115,81l-6.3,9.6V87.4Zm-6.3-8.6a1.3,1.3,0,0,1,1.3-1.2,1.32,1.32,0,0,1,1.3,1.3V81.4l-2.6,4V69.1Zm5.7,1.5v4.5h-2V69.2A1.52,1.52,0,0,1,113,68a3.49,3.49,0,0,1,1.3-.5v1.2a1.13,1.13,0,0,0-.4,1.5c.2.2.3.4.4.4Zm-.2,6.3-1.8,2.7V75.9A5.24,5.24,0,0,0,114.07,76.9Zm1.4-8.2V67.5a2.57,2.57,0,0,1,1.2.5,1.52,1.52,0,0,1,.7,1.2v5.9h-1.9V70.6a1.13,1.13,0,0,0,.4-1.5C115.67,69,115.57,68.8,115.47,68.7Zm1.9,7.2v3.6l-1.7-2.6a5.85,5.85,0,0,0,1.7-1Zm1.1,5.4V69.2a1.32,1.32,0,0,1,1.3-1.3,1.39,1.39,0,0,1,1.3,1.2v16Zm.6,14.1a22.5,22.5,0,0,1,2.4.8v6.4a17.25,17.25,0,0,0-2.4-1Zm2.1-41.1h-2.1V46a1.69,1.69,0,0,1,.3-1,1,1,0,0,1,1.5.1,1.49,1.49,0,0,1,.4.9l-.1,8.3Zm0,7.3v5.5a2.84,2.84,0,0,0-1.3-.4,2.14,2.14,0,0,0-1.8.9l-.6-.6a4.38,4.38,0,0,0-1.9-.7v-.6h1V64.5h-1v-1h-1.1v1h-1v1.2h1v.6a4.79,4.79,0,0,0-2,.7l-.6.6a2.43,2.43,0,0,0-1.8-.9,2,2,0,0,0-1.3.4V61.6Zm-10.7,33.9v6.2a16.27,16.27,0,0,0-2.3,1.1V96.3A15.55,15.55,0,0,1,110.47,95.5Zm4.4,6.6a12,12,0,0,1,11.9,11.6c0,4.5-2.7,8.2-7,10.5a2.49,2.49,0,0,1,.1-.8,12.81,12.81,0,0,1,1.7-4.2,1.49,1.49,0,0,0,1.5-.7,1.62,1.62,0,0,0,.1-1.5,1.74,1.74,0,0,0,1.2-1.4,1.56,1.56,0,0,0-1.1-1.7,1.75,1.75,0,0,0,.3-1.7,1.51,1.51,0,0,0-1.8-.9s.2-.7-.7-1.2-1.4-.2-1.4-.2a1.21,1.21,0,0,0-.7-.7,3.75,3.75,0,0,0-1.1-.1,1.23,1.23,0,0,0-.8-.4,1.73,1.73,0,0,0-1,.1,1.58,1.58,0,0,0-2.2-.2c-.1,0-.1.1-.2.2a1.17,1.17,0,0,0-.8-.2,1.23,1.23,0,0,0-1,.5,1.08,1.08,0,0,0-1.1,0,3,3,0,0,0-.8.8s-.4-.4-1.4.2a1.52,1.52,0,0,0-.7,1.2,1.59,1.59,0,0,0-1.6,2.5,1.51,1.51,0,0,0-1.1,1.6,1.81,1.81,0,0,0,1.3,1.6,1.66,1.66,0,0,0,1.8,2.2c.1.5.9,3.5,1,4.7-.7-.5-1.3-.9-1.3-.9a11.15,11.15,0,0,1-3.5-15.3,12.39,12.39,0,0,1,1.8-2.2,12.62,12.62,0,0,1,8.6-3.4Zm24.8-32.2v-1h-1.1v1h-1V71h1v3.3l-2.9,4.4V56.6l6.7,10.2V78.6l-2.7-4.1V71h1V69.8Zm-.6,5.7,3.3,5v2.9a2.62,2.62,0,0,0-3.4.5,2.52,2.52,0,0,0-2-.9,2.3,2.3,0,0,0-1.4.4V80.8Zm3.2,9.8v26.8l-2.8-4.2V85.5a1.49,1.49,0,0,1,1.4-1.3,1.27,1.27,0,0,1,1.4,1.2Zm-6.7.1a1.42,1.42,0,0,1,1.4-1.3,1.49,1.49,0,0,1,1.4,1.3V108l-2.8,4.2V85.5Zm3.4,23.7,3.4,5.1v9.8a2.2,2.2,0,0,0-1.3-.4,2.88,2.88,0,0,0-2,.9,2.52,2.52,0,0,0-2-.9,2,2,0,0,0-1.3.4v-9.7Zm.6,70.5V154h2.8v18l-2.7,4.8-.1,2.9Zm.1,6.1v1.3h-.8l.2-.2c.2-.4.4-.7.6-1.1Zm-.1-34.4V126.2a1.49,1.49,0,0,1,.4-.9,1.78,1.78,0,0,1,1-.4,1.32,1.32,0,0,1,1.3,1.3h0v25.2Zm-2.7-26.5a1.78,1.78,0,0,1,1,.4,1,1,0,0,1,.4.9v25.2h-2.8V125.8a1.3,1.3,0,0,1,1.4-.9Zm1.5,29.1v24.6l-.4-.3a10.44,10.44,0,0,1-2.3-2.8v-.1l-.1-.1V154Zm-1.1,25.1c.9.8,1.7,1.5,2.1,1.9-.2,1.3-.4,2.5-.6,3.8a3.1,3.1,0,0,1-.6,1.3,1,1,0,0,1-.7.4.91.91,0,0,1-.8-.4c-.7-.8-.8-3-.8-4.1v-1a8.72,8.72,0,0,1-3.1-1.8c-1.1-1.1-2.3-3.2-2.9-7.2-.2-1.4-.4-4.4-.8-7.5a35.8,35.8,0,0,0-1.5-7.8l-1.1.5a31.2,31.2,0,0,1,1.4,7.4c.3,3,.6,6,.8,7.5.6,4.1,1.9,6.4,3.2,7.8a7.89,7.89,0,0,0,2.9,1.8,8.7,8.7,0,0,0-.9,1.1,31.55,31.55,0,0,1-2.2,2.9,3.84,3.84,0,0,1-2.4,1.5,1.43,1.43,0,0,1-1.2-.6,7.82,7.82,0,0,0-5.6-2.8,5.14,5.14,0,0,0-3.7,1.5,3.38,3.38,0,0,1-1.9.9,3.7,3.7,0,0,1-2.4-1.2l-.9-.9a8.28,8.28,0,0,0-1.5-1.1,4.67,4.67,0,0,0-1.7-.3,5.22,5.22,0,0,0-2.1.4,14.14,14.14,0,0,0-3.6,2.4,4.47,4.47,0,0,1-2.7,1.2,3.61,3.61,0,0,1-2.8-1.5,5.36,5.36,0,0,0-1.5-1.5,2.84,2.84,0,0,0-1.3-.4c1.9-4.9,5-14.2,5.9-17.8.5-2.1,1-4.2,1.6-6.3.4-1.6,1.1-3.8,2.9-5a5.7,5.7,0,0,1,2.2-.4,2.15,2.15,0,0,1,1.1.2,15,15,0,0,1,3.2,1.9,7.33,7.33,0,0,0,3.8,1.4c2.5,0,5.2-1.5,6-1.8a5.94,5.94,0,0,1,.8-.4,4.67,4.67,0,0,0,1-.5l.3-.2a4.19,4.19,0,0,1,1.6-.4,2.92,2.92,0,0,1,.9.2,2.17,2.17,0,0,1,1,1.1,26.4,26.4,0,0,1,2.2,7.3c.4,2.5,1.1,6.4,1.9,9.6a23.29,23.29,0,0,0,1.1,2.8,4.13,4.13,0,0,0,.7,1.1l.1.1a12,12,0,0,0,2.6,2.9Zm-1.2,8h-4c.5-.5.9-1,1.4-1.5.5-.7,1-1.4,1.5-2a5.08,5.08,0,0,0,.3,1.7,3.46,3.46,0,0,0,.8,1.6c-.1.1-.1.1,0,.2Zm-9.3,0H126a4.18,4.18,0,0,0-.4-1,10.59,10.59,0,0,1,1.2,1Zm-2.9-1.7A5,5,0,0,1,125,188c0,.2,0,.3-.1.4v.1a3.08,3.08,0,0,1-1.3.3,2.27,2.27,0,0,1-1.6-.6,9.34,9.34,0,0,1-1.6-1.8,5.74,5.74,0,0,1-.4-.7,4.38,4.38,0,0,1,2.5-.8h.1l.8,2.2,1.1-.4Zm-4.6,1.7H118a3.13,3.13,0,0,0,1-.5,2.19,2.19,0,0,1,.3.5Zm-3.8,0h-2.1c0-.4.1-.8.1-1.2v-.2l.2.1a4.63,4.63,0,0,0,1.8,1.3Zm-4.3.4.9-2.8.2.1v1c0,.6-.1,1.1-.1,1.7a1.76,1.76,0,0,1-.4.5c-.2.2-.5.3-.7.5s-.4.1-.6.2a2.77,2.77,0,0,1-.9.1h-.2a1.86,1.86,0,0,1-1.2-.9,1.88,1.88,0,0,1-.2-.8,4.79,4.79,0,0,1,.9-2.6c0-.1.1-.1.2-.2a6.37,6.37,0,0,1,.7-.2h.5a1.27,1.27,0,0,1,.6.1l.3.1-1,3Zm-4.4-.4h-2.2l.9-.6a10.92,10.92,0,0,1,1.7-1.3,5.66,5.66,0,0,0-.3,1.8c-.1,0-.2.1-.1.1Zm-16-6.6a36.52,36.52,0,0,0,6.2-8.4c2.2-4.1,3.6-9.5,4.3-11.7a9,9,0,0,1,2.7-4.6,19.78,19.78,0,0,0-1.2,3.1c-.6,2.1-1,4.2-1.6,6.3a197.41,197.41,0,0,1-6.3,18.8,10.93,10.93,0,0,0-.8,1.5,2,2,0,0,1-1.2,1h-.2c-.4,0-.8-.3-1.2-1.4a10.13,10.13,0,0,1-.7-4.6Zm.4,6.6h-1v-2c0,.2.1.3.2.5a2.75,2.75,0,0,0,.8,1.5Zm3-33.1v20.4a33.75,33.75,0,0,1-2.8,3.8V154Zm-2.8-2.6V126.2a1.49,1.49,0,0,1,.4-.9,1.78,1.78,0,0,1,1-.4,1.24,1.24,0,0,1,1.3,1.2v25.3Zm2.8-39.2-2.8-4.2V85.5a1.32,1.32,0,0,1,1.3-1.3h0a1.78,1.78,0,0,1,1,.4,1,1,0,0,1,.4.9Zm11.1,10.9a2.14,2.14,0,0,1,2.2,2.1l-.6.2.2.5v.3c0,.4-.2.5-.5.5a.63.63,0,0,1-.6-.5l-.1-.2v-.2h.9v-1.2h-.9v-.9h-1.1v.9h-.9v1.2h.9v.2l-1.3.4a2.84,2.84,0,0,1-.4-1.2,2.08,2.08,0,0,1,2.2-2.1Zm-.1-.6v-.6l.6.6h-.6Zm3,3.8h0l.6-.3,1.4,3.9-.5.2a1.51,1.51,0,0,0-1.4-.7,1.79,1.79,0,0,0-1.8,1.8l-.6.2-1.3-4,.6-.2a1.72,1.72,0,0,0,1.4.8,2.1,2.1,0,0,0,1.1-.4,2.66,2.66,0,0,0,.5-1.3Zm-.3-2.1.9.6-.7.2c-.1-.3-.1-.5-.2-.8Zm12.2-5h-.6a3,3,0,0,1-.4,1c-.3.4-.3.3-.8,1a5.56,5.56,0,0,0-1.7-.9v-1h-.5v1h-.3V120h-.4v.4c0,.2-.2.3-.4.3a.32.32,0,0,1-.3-.3V120h-.4v.3H114v-1.1h-.5v1a3.61,3.61,0,0,0-1.5.8,2.59,2.59,0,0,1-1.6-1.9h-.3a18.87,18.87,0,0,1-.9-3.4c.4-.3,1.3-1.2,1.3-1.7a1.28,1.28,0,0,0,1,.4,1.71,1.71,0,0,0,1.3-.7,1.74,1.74,0,0,0,2.3-.4c.3.3.6.7,1.1.7a2.66,2.66,0,0,0,1.2-.3,1.71,1.71,0,0,0,1.3.7c.9,0,1-.4,1-.4s1.1,1.2,1.6,1.6c-.4,1.3-.8,2.4-1.2,3.6Zm1.6,7v.8c-.5-.6-.9-1.2-1.4-1.7a10,10,0,0,0,1.4-.8,2.2,2.2,0,0,0-.1.8,1.41,1.41,0,0,0,.1.9Zm-.6,2a15.38,15.38,0,0,1-1.3,1.2,3.8,3.8,0,0,0-1.6,2.5v.3a14.27,14.27,0,0,0,.8,2.2c.7,1.6,1.7,3.9,2.7,5.9.5,1,1,1.9,1.4,2.6a4.43,4.43,0,0,0,1.2,1.5,2.85,2.85,0,0,0,1.4.8c1.5.4,2.7.8,3.3,2.1l1-.5c-.9-1.8-2.6-2.2-4-2.7l-.1-.1v-.3a28.68,28.68,0,0,1,.5-4.1l-1.1-.2c-.2,1.2-.4,2.5-.5,3.7-.2-.2-.3-.5-.5-.7a14.5,14.5,0,0,1-1.1-5c-.2-1.8-.2-3.6-.4-4.7l-1.1.2c.2,1.1.2,3.4.5,5.6-.3-.6-.5-1.1-.8-1.7-.5-1.2-1-2.3-1.4-3.2-.2-.5-.4-1.1-.6-1.6v-.1c0-.4.5-1,1.2-1.6.4-.4.9-.7,1.3-1.1,4.4,5.9,8.7,13.5,9.6,17.1,0,.3.1.6.1.8a5.14,5.14,0,0,1-2,3.8,6.07,6.07,0,0,1-1,.7V151a4.51,4.51,0,0,0-.7-2.5,6.47,6.47,0,0,0-.9-.8,5.41,5.41,0,0,0-2.6-1.1H124c-.1,0-.3-.1-.6-.4-1.1-1.2-2.5-4.7-3.6-8.2-1-3.2-1.9-6.6-2.3-8.4l1.2-.6a2.59,2.59,0,0,0,1.1-1.4,4.25,4.25,0,0,0,.2-1.1,5.94,5.94,0,0,0,1.1,1.7Zm3.2-5a2.2,2.2,0,1,1-2.2,2.2h0a2.1,2.1,0,0,1,2.2-2.2Zm-.1-.6.4-.4v.3l-.4.1Zm3.4-21.6v9.7a13.52,13.52,0,0,0-2-4.2V99A18.88,18.88,0,0,1,127.57,101Zm-1.9-3.4,1.9-2.9v4.7a10.71,10.71,0,0,0-1.9-1.8Zm1.9,28.7v9.4c-.6-1-1.3-2.1-2-3.1v-4.8a2.69,2.69,0,0,0,1.1-3.8,2.35,2.35,0,0,0-1.1-1.1v-2a12,12,0,0,0,2-4.1v7.6a3.08,3.08,0,0,0,0,1.9Zm-3.1,1.8v2.8c-.6-.8-1.1-1.6-1.7-2.4v-.9a3,3,0,0,0,1.5.5Zm5.9,23.3a6.26,6.26,0,0,0,2.2-4.4,3.4,3.4,0,0,0-.1-1,16.29,16.29,0,0,0-1.1-3.1v-15a2.77,2.77,0,0,0,1.6-2.4v25.9ZM133,154v13.8c-.4-2-.7-4-1-5.4a30.43,30.43,0,0,0-1.3-5.2,11.18,11.18,0,0,0-1.1-2.5c-.1-.2-.3-.4-.4-.6Zm-4.2-53.4v-6l4.2,6.5v8a24.17,24.17,0,0,0-4.2-8.5Zm4.2,16.7v7.8a3,3,0,0,0-1.6-2.4v-15a28.87,28.87,0,0,1,1.6,9.6Zm-2.8-12.3v17.5a2.82,2.82,0,0,0-1.5.4V102.5A12.75,12.75,0,0,1,130.17,105Zm-1.4-12.5v-4L133,95v4Zm0-6.1V79.3a2.09,2.09,0,0,1,2.1-2,2.26,2.26,0,0,1,2.2,2V92.9Zm2-10.3a3.19,3.19,0,0,0-2.7,1.4,3.5,3.5,0,0,0-2.8-1.4,3.58,3.58,0,0,0-2.4.9l5.3-8,4.7,7.2V77a3.67,3.67,0,0,0-2.1-.9Zm-.6,47a2.2,2.2,0,1,1-2.2,2.2h0a2.22,2.22,0,0,1,2.2-2.2Zm0,5v12.3a18.21,18.21,0,0,0-1.5-2.7v-10A4.19,4.19,0,0,0,130.17,128.1Zm-5.8,23.7-4,2.4c-.1,0-.2-.1-.3-.2l4.1-2.6-.6-1-4.3,2.8a1.27,1.27,0,0,1-.1-.6l4.2-2.5-.6-1-3.2,1.9a2.41,2.41,0,0,1,1-1c.3-.2.4-.2,3.6-2.3h.1a10.84,10.84,0,0,1,1.9.8,3.25,3.25,0,0,1,1.1,2.5,2.2,2.2,0,0,1-.1.8l-2.6,1.6-1.2.6c-.3.1-.7.2-1,.3l2.5-1.5Zm-10,1h-.3a2.82,2.82,0,0,1-2.6-2.8v-.4a3,3,0,0,1,3.1-2.6,2,2,0,0,1,.7.1l.3.1.2-.3a2.75,2.75,0,0,1,2.2-1.2,3.74,3.74,0,0,1,1.8.5,3,3,0,0,1,1.4,2.2l-.4.3v-.1a2.28,2.28,0,0,0-1-1.9,2.69,2.69,0,0,0-1.5-.5,2.74,2.74,0,0,0-2.5,1.6,2.66,2.66,0,0,0-1.2-.3,2.59,2.59,0,0,0-2.6,2.2v.4a2.87,2.87,0,0,0,.7,1.8,2.72,2.72,0,0,0,1.7.6h.5a2.63,2.63,0,0,0,2.6,2.5,3.55,3.55,0,0,0,1-.2l.3-.1a2.18,2.18,0,0,0,.5.4,1.93,1.93,0,0,1-1,.3,2.2,2.2,0,0,1-.8.1,2.91,2.91,0,0,1-2.8-2.1Zm0,2.3-.5-.3c-.5-.3-1.1-.7-1.6-1h1.3a4.11,4.11,0,0,0,.8,1.3Zm-14.9-32a2.2,2.2,0,1,1-2.2,2.2h0A2.22,2.22,0,0,1,99.47,123.1Zm-.1-.6V105.4a25.43,25.43,0,0,1,1.6-2.8V123a2.77,2.77,0,0,0-1.6-.5Zm1.6,5.2v11.4l-.9,1.6c-.3.5-.5,1-.7,1.4v-14h.1a2.41,2.41,0,0,0,1.5-.4Zm-2.2,19.1v-.1a26.14,26.14,0,0,1,2.4-5.4c1.2-2.3,2.7-4.9,4.3-7.4l1.3,3.9,2.6-.9-.1-.5v-.2a.65.65,0,0,1,.6-.6h0c.2,0,.4.1.6.5l.2.6c-.7,1.9-1.8,4.6-2.3,6a4.33,4.33,0,0,1-.5-.1,4.26,4.26,0,0,0-2.9,1.6,38.75,38.75,0,0,1,1.3-5.9l-1.1-.4a41.55,41.55,0,0,0-1.8,11.1,5,5,0,0,0,.2,1.7,2,2,0,0,0,2,1.6,4.94,4.94,0,0,0,3-1.4,6.15,6.15,0,0,1-3.6,2.9,1.27,1.27,0,0,1-.6.1,5.83,5.83,0,0,1-3.8-2.1,6.94,6.94,0,0,1-2-4.1,2,2,0,0,1,.2-.9Zm8.8-15.7a.67.67,0,0,1,.7-.6c.2,0,.4.1.5.5v.2a.67.67,0,0,1-.7.6c-.2,0-.4-.1-.5-.5v-.2Zm.5,1.9a1.79,1.79,0,0,0,1.8-1.8l.5-.2,1.4,3.8-.3.1-.3.1a1.51,1.51,0,0,0-1.4-.7A1.77,1.77,0,0,0,108,136l-.6.2-1.3-3.8.6-.2a1.72,1.72,0,0,0,1.4.8Zm6.9-5.8h.5a3.68,3.68,0,0,0,3-1.9,11,11,0,0,1-.2,1.8,1.56,1.56,0,0,1-.6.8c-.3.2-.9.4-1.5.7l-.4.2.1.4c.1.5.3,1.2.5,1.9a2.39,2.39,0,0,1-1.4.5,2.54,2.54,0,0,1-1.7-.4c.2-.8.4-1.4.5-1.9l.1-.5-.5-.2a3.84,3.84,0,0,1-2.3-2.2,3.71,3.71,0,0,0-.2-.9v-.8a4.88,4.88,0,0,0,4.1,2.5Zm-1.4-4.7h2.7a1.51,1.51,0,0,1-1.6,1.1A1.27,1.27,0,0,1,113.57,122.5Zm4.5,18.3a82.65,82.65,0,0,1-1.5-8.2l.3-.2c.5,1.8,1.1,4,1.7,6.1a32.1,32.1,0,0,1,.9,6.1c-.2-.1-.4-.1-.6-.2h.1c-.1.2-.5-1.3-.9-3.6Zm-1.5-1.3a3.51,3.51,0,0,0-.5-.8,2,2,0,0,0-1.2-.8h-.3l-.2.1c.1-1,.4-3.3.5-5h.5c.3,2.3.8,4.6,1.2,6.5Zm-3.9-6,.3-1c.2.1.5.2.7.3,0,.9-.1,2.1-.2,3.1Zm.5,4.8-.5.1-.8-2.4.2-.1.3-.1Zm-.5-8.7q-.3.9-.6,2.1l-.5-1.5-.8-2.4a3.72,3.72,0,0,0,1.9,1.8Zm-1,9.6c-.3.4-.6.9-.9,1.4a13,13,0,0,1-1,1.5c.4-1.1,1-2.6,1.5-3.9Zm-3.9,4.4c-.7.7-1.3,1.5-1.9,2.2a20.28,20.28,0,0,0-1.3,1.8c0-.4.1-.9.1-1.3.9-1.6,2.1-2.7,3.1-2.7Zm2.6,5.6h0l.1.2v.6a3.86,3.86,0,0,0,1.1,2.7h-2.8a8.63,8.63,0,0,0,1.6-3.5Zm.5-1.8a3.51,3.51,0,0,0-.9.7l-.3.3-.2.2c-1.9,1.8-3.1,2.5-3.8,2.4-.5,0-.7-.2-1-.9a.9.9,0,0,1-.1-.5c.5-.6,1.3-1.8,2.2-3.1a9.79,9.79,0,0,1,3.2-3.2,5.1,5.1,0,0,0,1.9-2.2,3.31,3.31,0,0,1,1.2-1.5l1.9-.5c.1.1.3.2.4.4l-1.3.5.5,1.1,1.4-.6c.1.1.1.3.2.4l-1.4.6.4,1.1,1.3-.5c0,.2.1.3.1.5l-1.3.5.4,1.1,1.1-.4v.2c0,.2,0,.3-.1.4a33.06,33.06,0,0,0-3.9,1.9,5.43,5.43,0,0,0-1.9,1.1Zm9.7-3.3c.2.4.3.7.5,1.1a9.39,9.39,0,0,0,1.2,1.8l.4.4-.5.3a4,4,0,0,0-1.6-2.4v-.4c.1-.1,0-.5,0-.8Zm-1.2,5.4a1.76,1.76,0,0,0-.4.5l-.9-.1-.4.9.7.4a5.07,5.07,0,0,0-.2,1.3,3.55,3.55,0,0,0,.2,1l-.1.1a.9.9,0,0,1-.5.1,1.39,1.39,0,0,1-1-.5,1.28,1.28,0,0,1-.4-1,1.07,1.07,0,0,1,.2-.6l-.8-.8a1.5,1.5,0,0,1-1.1.4,1.17,1.17,0,0,1-1.4-1v-.5a1.4,1.4,0,0,1,1.4-1.2,1.3,1.3,0,0,1,1.2.8l1.1-.4c0-.1-.1-.2,0-.4a1.27,1.27,0,0,1,.4-.9,1.78,1.78,0,0,1,1-.4,1.14,1.14,0,0,1,.8.3,1.37,1.37,0,0,1,.3,2Zm-15.3-26.7a2.72,2.72,0,0,0-1.2,3.7,2.09,2.09,0,0,0,.4.6l.8,2.5v4.3c-.6,1-1.3,2.1-1.9,3.1V126.1a2.77,2.77,0,0,0,.1-.9,2,2,0,0,0-.1-.8v-8.1a13.27,13.27,0,0,0,1.9,4.2v2.3Zm-1.9-23.4V94.6l2,3a11.23,11.23,0,0,0-2,1.8Zm1.9-.2v7.6a13.27,13.27,0,0,0-1.9,4.2v-9.9A17,17,0,0,1,104.07,99.2Zm-2.4-21.6A3.19,3.19,0,0,0,99,76.2a3.49,3.49,0,0,0-2.2.8v-.6l4.8-7.3,5.3,8v.1a3.58,3.58,0,0,0-2.4-.9,3,3,0,0,0-2.8,1.3Zm-4.9,1.7a2.19,2.19,0,0,1,2.2-2,2.08,2.08,0,0,1,2.1,1.9v7.2l-4.2,6.5V79.3Zm4.3,9.2v4L96.77,99V95Zm0,6.1v6.1a22.59,22.59,0,0,0-4.2,8.5v-8.1Zm-4.3,23a29.83,29.83,0,0,1,1.5-9.4v14.6a2.82,2.82,0,0,0-1.5,2v-7.2Zm1.5,10.2v16.8a7,7,0,0,0-.6,1.9,3.4,3.4,0,0,0-.1,1,7,7,0,0,0,1.5,3.9h-2.3V125.8a2.58,2.58,0,0,0,1.5,2Zm3.6,26.2a4.42,4.42,0,0,0,1.6.6l-.2.2a9.38,9.38,0,0,0-3.1,5.2,65.56,65.56,0,0,1-3.4,9.7V154Zm-6.5,31.5a2.18,2.18,0,0,1,.5-.8.76.76,0,0,1,.5-.2,1.2,1.2,0,0,1,.8.2,6.81,6.81,0,0,1,1.2,1.2,4.56,4.56,0,0,0,1.2,1.2h-5.4a6.1,6.1,0,0,0,1.2-1.6ZM133,74.1l-4.2-6.5v-2h1V64.5h-1v-1h-1.1v1h-1v1.2h1v2.2L123,75V61.6h10.1Zm-9.4,3.9a2.84,2.84,0,0,1,1.7-.7,2.31,2.31,0,0,1,2.3,2.2h0v6.9l-4.7,7.1V79.4A2.67,2.67,0,0,1,123.57,78Zm4,10.5v4l-2.8,4.4c-.6-.4-1.2-.8-1.9-1.2v-.1Zm-3.1,9.6v7a16.32,16.32,0,0,0-2-1.7V96.8a13.73,13.73,0,0,1,2,1.3Zm-17.4,5.5a15.37,15.37,0,0,0-1.9,1.7V98.2c.6-.4,1.2-.8,1.9-1.2Zm-2-6.7-2.9-4.4v-4l4.7,7.2A18.76,18.76,0,0,0,105.07,96.9Zm-2.9-10.4V79.6a2.24,2.24,0,0,1,2.3-2.2,2.34,2.34,0,0,1,1.7.7,2.09,2.09,0,0,1,.7,1.3V93.7Zm0-18.7V65.7h1V64.5h-1v-1h-1.1v1h-1v1.2h1v2.1l-4.2,6.5V61.6h10V74.9Zm-3.1-13.5h-2.4V43.7L96,42.4V38.2h1V37H96V36h-1.2v1h-1v1.2h1v4.2l-.7,1.2V54.5l-6.7,10.2V37.3a91.76,91.76,0,0,1,11.7-3.2Zm-5,2.4V78.6l-2.8-4.2V71h1V69.8h-1v-1h-1.1v1h-1V71h1v3.3l-2.8,4.2V66.9Zm-3.3,18.9,3.4,5.1v2.8a2.3,2.3,0,0,0-1.4-.4,2.46,2.46,0,0,0-1.9.9,2.46,2.46,0,0,0-1.9-.9,2.3,2.3,0,0,0-1.4.4V80.7Zm-2,8.6a1.49,1.49,0,0,1,1.4,1.3V108l-2.8,4.2V85.5a1.49,1.49,0,0,1,1.4-1.3Zm2,25,3.4,5.1v9.8a2.3,2.3,0,0,0-1.4-.4,2.52,2.52,0,0,0-2,.9,2.52,2.52,0,0,0-2-.9,2.3,2.3,0,0,0-1.4.4v-9.8Zm-2,15.7a1.49,1.49,0,0,1,1.4,1.3v25.2h-2.8V126.1a1.4,1.4,0,0,1,1.4-1.2Zm1.4,29.1v25.4l-.1.1v-2.7l-2.7-4.8V154Zm-1.8,23.3v10.3L87,188.8V174.9Zm53,10.3V177.3l1.4-2.4v13.9Zm1-122.9-6.7-10.2V43.7l-.7-1.2V38.3h1V37.1h-1v-1h-1.2v1h-1v1.2h1v4.2l-.7,1.2V54.2h-2.3V34.1a77.78,77.78,0,0,1,11.7,3.2ZM133,55.4v5.1h-10.1V55.4Zm-10.1-1.1V46a1.29,1.29,0,0,1,1.1-1.3.75.75,0,0,1,.7.4,1.61,1.61,0,0,1,.3.9v8.2Zm3.3,0V46a1.32,1.32,0,0,1,1.3-1.3,1.28,1.28,0,0,1,1,.4,1.09,1.09,0,0,1,.4.9v8.2Zm2.7-12.5V44a2.3,2.3,0,0,0-1.4-.4,2.46,2.46,0,0,0-1.9.9,2.23,2.23,0,0,0-1.7-.9,2.39,2.39,0,0,0-1.4.5V41.4l3-4.6Zm-6.3-11.2a1.25,1.25,0,0,1,2.5.1h0v4.9l-2.4,3.7-.1-8.7Zm-3.5-17.7c2,.1,4,.2,6,.4v11l-3-7.7-3,7.8Zm0,15.4v-.7l3-7.8,3,7.7v1.2a2.84,2.84,0,0,0-1.2-.4,2.14,2.14,0,0,0-1.8.9,2.43,2.43,0,0,0-1.8-.9,1.75,1.75,0,0,0-1.2.4Zm0,2.4a1.26,1.26,0,1,1,2.5-.3v8.9l-2.4-3.7V30.7Zm2.4,10.7v2.7a2,2,0,0,0-1.5-.6,2.09,2.09,0,0,0-1.6.8,2.19,2.19,0,0,0-2.9-.5V41.2l2.9-4.5Zm-6-2.2v-11a1.16,1.16,0,1,1,2.3-.3v7.6Zm-3.6-26.4h5.9V21l-3-7.7-3,7.6Zm0,11.3,3-7.6,3,7.7v2a2.66,2.66,0,0,0-1.2-.3,2.27,2.27,0,0,0-1.8.9,2.3,2.3,0,0,0-3-.5Zm0,4a1.25,1.25,0,0,1,2.5-.1V39.3l-2.5-3.7Zm2.5,13.3v2.5a2.84,2.84,0,0,0-1.2-.4,2.5,2.5,0,0,0-1.8.8,2.14,2.14,0,0,0-1.7-.8,2.39,2.39,0,0,0-1.4.5V41.3l3-4.6Zm-6-2.1V30.7a1.2,1.2,0,1,1,2.4-.2v5.1Zm-3.6-26c2-.2,4-.3,6-.4V24.2l-3-7.7-3,7.8Zm0,14.3,3-7.8,3,7.7v1.2a2.84,2.84,0,0,0-1.2-.4,2.14,2.14,0,0,0-1.8.9,2.43,2.43,0,0,0-1.8-.9,1.75,1.75,0,0,0-1.2.4Zm0,3.1a1.2,1.2,0,0,1,2.4,0v8.6l-2.4-3.7V30.7Zm2.4,10.8v2.8a2,2,0,0,0-1.5-.6,2.09,2.09,0,0,0-1.6.8,2.5,2.5,0,0,0-1.8-.8,2.3,2.3,0,0,0-1.4.4V41.9l3.3-5Zm-6.3-1.7v-6a25.12,25.12,0,0,1,2.7-.4v2.2Zm-53.6,95h-2.9a2.85,2.85,0,0,0,1.3-3.7,3.25,3.25,0,0,0-1.3-1.3h2.9Zm-5.3-5a2.85,2.85,0,0,0-1.3,3.7,3.25,3.25,0,0,0,1.3,1.3h-2.7v-5Zm-2.6-1.8v-5.3a1.23,1.23,0,0,1,.5-1,1.75,1.75,0,0,1,1.2-.4,1.48,1.48,0,0,1,1.6,1.4v5.4l-3.3-.1Zm1.6,4.3a2.2,2.2,0,1,1,2.2,2.2A2.22,2.22,0,0,1,41,132.3Zm6.3-4.3h-3.5v-5.3a1.57,1.57,0,0,1,1.7-1.4,2.84,2.84,0,0,1,1.3.4,1.23,1.23,0,0,1,.5,1Zm0-7.4a3.85,3.85,0,0,0-1.8-.6,2.87,2.87,0,0,0-2.2,1,2.87,2.87,0,0,0-2.2-1,3.37,3.37,0,0,0-1.7.5v-2.8l3.9-6,4,6.1Zm0-4.7-3.5-5.3v-2.2h1v-1.2h-1v-1h-1.1v1h-1v1.2h1v2.2l-3.3,5.1v-8.2l7.9-11.4Zm0-21.7-7.9,11.4V91.9l-.9-1.4-.9,1.4v44.7h9.7v25.8a82.6,82.6,0,0,1,0-94.5Zm0-32.3v3.9a83.59,83.59,0,0,0,0,98.5v27.4c-1.6-1.4-3.1-2.9-4.7-4.4a102.24,102.24,0,0,1,60.9-173.9V32.1c-.9.1-1.8.3-2.7.4V18.9l-.9-1.1L99,18.9v14A91.45,91.45,0,0,0,87.27,36V33L86,30.8,84.67,33v4a73.49,73.49,0,0,0-7.6,3.4V37.3l-1.8,2.8v1.1a85.81,85.81,0,0,0-16.1,11.2v-3l-1.8,2.7v2a86.94,86.94,0,0,0-7.7,8.3v-.5l-1.3-2.2Zm26.4,132v-1.2h1.1v-1.1H76v1.1h1.1v1.2H76V195h-1.2v-1.1Zm-23.8-3.2v-1.8h32.8l2,1.8Zm18.2,3.2v-1.2h1.1v-1.1h1.2v1.1h1.1v1.2h-1.1V195h-1.2v-1.1Zm-5.5,0v-1.2h1.1v-1.1h1.2v1.1h1.2v1.2h-1.2V195h-1.2v-1.1Zm-5.6,0v-1.2h1.1v-1.1h1.2v1.1h1.1v1.2h-1.1V195h-1.1v-1.1Zm5.1-124,2.1,3.2V84.5h-1.5V75l.5-.9-1.1-1.8L61,74.1l.5.9v9.5h-2.1V74Zm-2.7,2V54.1c.7-.6,1.4-1.3,2.1-1.9V68.7Zm16.1,2V84.5h-2.1V75l.5-.9-1.1-1.8-1.1,1.8.5.9v9.5h-1.5V73.2l2.1-3.2Zm-2.1-5.1v-25l2.1-1.2V71.9Zm-2,50.3v2.2a15.26,15.26,0,0,0-3-.3h0l3.6-5.5,3.5,5.5v1.6a17.6,17.6,0,0,0-3-1v-2.5Zm-3-.2V103.5a1.68,1.68,0,0,1,1.4-.6,1.63,1.63,0,0,1,1.7,1.4v10Zm4.1-4.6v-10a1.37,1.37,0,0,1,1.4-1.4h0a2.1,2.1,0,0,1,1.1.4,1.39,1.39,0,0,1,.5,1v14.6ZM74,101.8a2.61,2.61,0,0,0-2,1,3.21,3.21,0,0,0-2.2-1,3.53,3.53,0,0,0-1.4.3v-.7l3.5-9.6,3.6,10.2v.2a2.15,2.15,0,0,0-1.5-.4Zm-2.2-13.4L68.27,98V85.7h7.2V98.6Zm.4-31-2.1-3.2L68,57.4V47.2a49.41,49.41,0,0,1,4.2-2.7Zm-2.1-1.2,2.1,3.2v9.3L70.67,71V63h1V61.8h-1V59.6h-1.1v2.2h-1V63h1v8l-1.5-2.3V59.4Zm-.6,17V84.6H68V75.1l.5-.9-1.1-1.8-1.1,1.8.5.9v9.5h-1.5V73.2l2.1-3.2Zm-2.7-15.8-2.1-3.2-2.1,3.2V51.3c1.4-1.1,2.8-2.2,4.2-3.2Zm-2.1-1.2,2.1,3.2v9.3L65.27,71V63h1.1V61.8h-1.1V59.6h-1.1v2.2h-1V63h1v8l-1.5-2.3V59.4Zm1.8,29.5V98.3l-3.6-9.9-3.6,10V85.7ZM63,91.8l3.6,9.9v.3a3.19,3.19,0,0,0-1.4-.3,2.87,2.87,0,0,0-2.2,1,2.81,2.81,0,0,0-2.1-1,3,3,0,0,0-1.5.5v-.4Zm3.5,11.7v15.4l-3-4.6v-10a1.57,1.57,0,0,1,1.7-1.4,1.61,1.61,0,0,1,1.3.6Zm-5.7-.6a1.45,1.45,0,0,1,1.5,1.4v10l-3,4.6V104.2a1.69,1.69,0,0,1,1.5-1.3ZM63,115.5l3.6,5.5a15.26,15.26,0,0,0-3,.3v-2.2h-1.2v2.5a17.6,17.6,0,0,0-3,1V121Zm4.4,6.7c8,0,12.3,3.7,14.7,7.5a19.75,19.75,0,0,1,2.4,5.8,3.37,3.37,0,0,0-1.7-.5h-.1a3.34,3.34,0,0,0-2.3.9,16.66,16.66,0,0,0-3.8-7.9c-2.2-2.6-5.2-4.5-8.3-4.7h-.7a5.7,5.7,0,0,0-1.3.1,14,14,0,0,0-7.7,4.6,15.63,15.63,0,0,0-3.9,7.8,3.07,3.07,0,0,0-2.4-.8,2.93,2.93,0,0,0-1.6.4,18.6,18.6,0,0,1,2.4-5.6c2-4,6.3-7.6,14.3-7.6Zm15.9,24.3V136.1a2,2,0,0,1,.9.5,1.38,1.38,0,0,1,.6,1.1V172l-1.5,2.8V146.5Zm-3-23.5v2.6a15.35,15.35,0,0,0-2.9-2.1l3.4-5.3,4,6v8.5A25.28,25.28,0,0,0,83,129a17.68,17.68,0,0,0-1.6-2.2V123Zm1.1-6V104.3a1.57,1.57,0,0,1,1.7-1.4,2.14,2.14,0,0,1,1.2.4,1.23,1.23,0,0,1,.5,1v17.8Zm3.4-14.7a3.37,3.37,0,0,0-1.7-.5,2.87,2.87,0,0,0-2.2,1,2.81,2.81,0,0,0-2.1-1,2.3,2.3,0,0,0-1.4.4l3.8-10.3Zm-3.3-12.4V39.6c1.1-.5,2.2-.9,3.2-1.3V99Zm-1.1.3L77.17,99V41.7a31.33,31.33,0,0,1,3.2-1.5Zm-1.7,12.7a1.45,1.45,0,0,1,1.5,1.4V117l-3,4.7V104.3a1.6,1.6,0,0,1,1.5-1.4Zm-7.5,79.8V184l-.1.2v-5.8c.1-1,.1-2.2.2-3.4l.2.2.2.2a1.42,1.42,0,0,1,.2.6,18.57,18.57,0,0,0-.6,3.4C71.17,180.4,71.17,181.7,71.17,182.7Zm-4-.4-.5-.1-.4-.1L66,179l3.7.6c0,.2,0,.3-.1.4v.2l-2.7-.5Zm-4.1-1.2c-1.3-.4-2.6-.8-3.9-1.3a5,5,0,0,0-1.3-.4c0-.2-.1-.3-.1-.5,1.9.5,6,1.5,7.3,1.8l.1.9A6.92,6.92,0,0,1,63.07,181.1Zm.5,1.4v4.6h-2v-5.2Zm-3.1-1v5.6h-2v-6.3l.2.1a18.88,18.88,0,0,0,1.8.6Zm-4-6c-.3-.1-.7-.2-1.1-.3V137.9a1.39,1.39,0,0,1,.7-1.2,2.11,2.11,0,0,1,1.3-.5V176Zm.9,7V185l-.4-1.1ZM56,184l.6,2.4a3.36,3.36,0,0,1-1.6-1,2.7,2.7,0,0,1-.7-2.1v-.1a21.66,21.66,0,0,1,.4-2.5c.2-.8.4-1.5.4-1.5v-.4a3.22,3.22,0,0,1-.2-.6,4.25,4.25,0,0,1-.2-1.1v-.3c.2-.4.2-.4.5-.4a2.92,2.92,0,0,1,.9.2l.6.3a5.07,5.07,0,0,0-.2,1.3,6.28,6.28,0,0,0,.3,1.9.6.6,0,0,0-.1.4c-.2.6-.8,3.4-.8,3.4s0,0,.1.1Zm-2.2-5a18.51,18.51,0,0,0-.7,4.1v.1a3.56,3.56,0,0,0,1.1,2.9,2.73,2.73,0,0,0,1.2.9h-2.6V136a1.72,1.72,0,0,1,1.5,1.7v37.6a1.34,1.34,0,0,0-.6.7,1.49,1.49,0,0,0-.2.9,6.65,6.65,0,0,0,.3,2.1Zm1.8-43.5a15.3,15.3,0,0,1,3.6-6.9,14.75,14.75,0,0,1,3-2.6,8.49,8.49,0,0,0-.9,2.2,27.37,27.37,0,0,0-.8,7.5,4.38,4.38,0,0,0-2.5-.8,4.75,4.75,0,0,0-2.4.6Zm25.9,12.1-1,.8-1-.8Zm-1.1-1.1v-8.6a1.71,1.71,0,0,1,.7-1.3,2.22,2.22,0,0,1,1.1-.5v10.4Zm-.5,2.3-1.8,1.4-1.8-1.4,1.5-1.2h.5Zm-2.6,21.8v-8.9c.4,0,.8-.1,1.1-.1a2.92,2.92,0,0,0,.9-.2v23.4c-.7-.1-1.3-.3-1.9-.4h-.1v-6.6a21.7,21.7,0,0,0,1.1-4.2A4.82,4.82,0,0,0,77.27,170.6Zm1.4-10.2a5.66,5.66,0,0,1-1.8.3l-1,.1-.6-1.7c0-.1.1-.4.6-.7a8.66,8.66,0,0,1,2.4-1h.3a.6.6,0,0,1,.4.1l-.1.1a11.73,11.73,0,0,0-1.1.5c-.2.1-.3.1-.5.2a.84.84,0,0,0-.4.7v.2c.1.2.2.4.4.4a.6.6,0,0,0,.4.1,7.49,7.49,0,0,0,1.6-.5,9.17,9.17,0,0,1,2.3-.9v.1a.52.52,0,0,1-.2.4c-.4.3-.9.6-1.3.9C79.37,160,78.87,160.3,78.67,160.4Zm-6.4,19a10.05,10.05,0,0,1,.4-2.5l1,.2-1.2,6.6h-.2v-1C72.37,181.7,72.27,180.3,72.27,179.4Zm-9.2-28.9.5-.2a1.42,1.42,0,0,1,.6-.2,2.51,2.51,0,0,0,.4.7,3.33,3.33,0,0,0,1.9,1.6,4.87,4.87,0,0,0,1.2.1,8.81,8.81,0,0,0,1.7-.2,9.68,9.68,0,0,1,.7.9,6.66,6.66,0,0,1,.9,3.6l-2.1.9-.1-.1c-.8-.8-1.7-2-3.7-4.4l-.9.7,1.6,2-3.5,2.6a2.71,2.71,0,0,1-.3-.8,6.47,6.47,0,0,1-.4-1.3,9.08,9.08,0,0,1-.3-2.3,2.77,2.77,0,0,1,.3-1.3,17.93,17.93,0,0,1,1.5-2.3Zm-1.5,0v-2.4c.1.1.3.2.4.3a3.42,3.42,0,0,0,1.8.4h.1v.1l-1.5.6c-.1,0-.1.1-.2.1s-.1.4-.6.9Zm5.3-.6a4.19,4.19,0,0,0,1.6.1h.7l-.1,1.2h-.2a5.28,5.28,0,0,1-1.3.1,2.77,2.77,0,0,1-.9-.1,2.54,2.54,0,0,1-1.2-1.1c-.1-.2-.3-.5-.4-.7a.35.35,0,0,0-.1-.2v-.1a9.73,9.73,0,0,0,1.9.8Zm-1.1-1.6c.3-.2.5-.4.8-.6l.2.7.1.4a11.73,11.73,0,0,0-1.1-.5Zm10.3-1.8h-2v-8.6a1.39,1.39,0,0,1,.7-1.2,2.11,2.11,0,0,1,1.3-.5Zm.8,1.1-1.1.8-1.1-.8Zm-1.5,1.3-1.3,1v-2Zm.4.3,1.8,1.4-1.8,1.4-1.7-1.3v-.1Zm-.5,3.2-1.2.9v-1.8Zm.5.3,1.8,1.4-1.9,1.5-1.5-1.2V154Zm-1,5a2.19,2.19,0,0,1-.3-.5l1.1-.9.6.5a3.88,3.88,0,0,0-1.1.6l-.3.3Zm1.2,4.2v7.4l-2-2.2v-4.4Zm-.8-6-.9.7a5,5,0,0,1-.2-1.2v-.3Zm-1,3.7-4.1,1.4.4-1.1L74,159ZM72.37,148c-.1-.1-.1-.2-.1-.4v-1a2.65,2.65,0,0,1,.5-.6l.1-.1v12.3l-.6.1-.1-1.3v-.1a7.61,7.61,0,0,0-1.1-4.4v-2.6h.1a2.2,2.2,0,0,0,.8-.1,1.09,1.09,0,0,0,.8-.8v-.3a5.74,5.74,0,0,0-.4-.7Zm-1.1,10.5-1.1.3-.4-.4,1.4-.6Zm1.6-14.4-.2-.4a.37.37,0,0,1-.1-.3v-.1a2.92,2.92,0,0,0,.2-.9,2.35,2.35,0,0,0-.2-.8c-.2-.2-.4-.6-.6-.8a2.3,2.3,0,0,0,.4-1.4,2.34,2.34,0,0,0-.8-1.8c-.2-.1-.3-.2-.5-.3V136a5,5,0,0,1,1.3.5,1.52,1.52,0,0,1,.7,1.2Zm-1.3-1.8h0c0,.1-.1.4-.2.8v.1a1,1,0,0,0-.8,1,2,2,0,0,1,1.1-.1l.4.8v.1l-.1.1-.1.1-.9.4a1.42,1.42,0,0,1,.2.6c0,.3-.1.7-.8,1.2l.7.9.2-.2c0,.1.1.2.1.3s.1.1.1.2h-.9c-.2,0-.4,0-1.7.1h-.4c-.1-.1-.3-.2-.4-.3-.2-.4-.3-.8-.5-1.2a7.1,7.1,0,0,0,1.4-1c1.4-1.3,1.7-3.4,2-4.5l.6.6ZM63.77,162a23.26,23.26,0,0,0,2.6,1.7h-1.9v-.1l-.7-1.6Zm-.9-2.5,3.7-2.8.5.6-3.2,3.2Zm2.8,2.5c-.4-.3-.8-.5-1-.7l3.2-3.1.2.2.3.3Zm3.5-2.5.2.2-1.3,3.8-1.2-.7-.2-.1Zm-7.5.3.6,1.5,1.1,2.8v.6a2.2,2.2,0,0,1-.1.8,12,12,0,0,0-1.1,5.6,2.33,2.33,0,0,0,.6,1.8,2.09,2.09,0,0,0,.6.4c0,.2.1.4.1.8.3,1,.6,2.1,1,3.1a6,6,0,0,0-1.9-.6h-.9Zm1.6,9.6c.9-.2,2.9-.6,4.1-.9,1-.3,2.3-.7,3.1-.9,0,.2.1.4.1.7-.8.2-2.5.8-3.6,1s-2.8.6-3.7.8a.85.85,0,0,1,0-.7Zm3.7-2c-1,.3-2.7.6-3.6.8a7.54,7.54,0,0,1,.8-2.4,1.8,1.8,0,0,0,.2-1h3.8l.2.1.5.3a5.24,5.24,0,0,1,1.1,1c0,.1.1.1.1.2a11.29,11.29,0,0,1-3.1,1Zm2.4-4,.3-1,5-1.7.2.5Zm3.3-.1.3-.1v2.5a.91.91,0,0,1-.3-.7Zm.8,4.8,2.5,2.8-.8.6-2.4-2.9Zm.8,4.1-.6.5-2.2-2c0-.1.1-.1.1-.2a2.46,2.46,0,0,0,.1-1.2h.1Zm-1.6,1.2-.9.7-.6-.6V172Zm2.2,4,1.1.3c-.2.5-.3,1-.5,1.5-.6,1.8-1.3,3.5-1.5,4.2l-.2.1Zm1.2,3.7v2.8a5.55,5.55,0,0,0-.8-.6c.2-.5.5-1.3.8-2.2Zm-3.2-5.3a1.33,1.33,0,0,0-.3-.8l4.1-3.2.3.6-3.5,2.7,3.2.8-.2.7Zm3.2-1.2,1.1-.9a4.25,4.25,0,0,1-.2,1.1Zm4-17h0a1.14,1.14,0,0,0-.3-.8l.6-.5,1.1.9a3.26,3.26,0,0,0-1.4.4Zm-.8-1.2a1.88,1.88,0,0,0-.8-.2,1.27,1.27,0,0,0-.6.1l-.9.3-.8-.6,1.9-1.5,1.8,1.4Zm-1.2-2.6-1.8-1.4,1.9-1.4,1.8,1.4Zm1.1-7.3h-2V136.1a5,5,0,0,1,1.3.5,1.52,1.52,0,0,1,.7,1.2Zm-2.5-11.6a4.38,4.38,0,0,0-2.5.8,27.68,27.68,0,0,0-.8-7.6,8.49,8.49,0,0,0-.9-2.2,15.52,15.52,0,0,1,6.6,9.6,5.33,5.33,0,0,0-2.4-.6Zm-3.7.8a4.38,4.38,0,0,0-2.5-.8,4.3,4.3,0,0,0-2.5.7V124.4c2.5.2,3.6,1.7,4.3,4.1a28.86,28.86,0,0,1,.7,7.2Zm-3.1.4v1.1a4.25,4.25,0,0,0-1.1.2,2.35,2.35,0,0,0-.8-.2,1.47,1.47,0,0,1,.5-.6,2.39,2.39,0,0,1,1.4-.5Zm-1.4,2.4.2.1.2-.1a2.92,2.92,0,0,1,.9-.2,1.5,1.5,0,0,1,1.1.4.55.55,0,0,1,.3.5,9.85,9.85,0,0,0-1.7-.2H69v1.1h.5a3.89,3.89,0,0,1,1.5.2,1,1,0,0,1-.5.4l-.1.1a2.2,2.2,0,0,0-.8-.1H69v1.1h1c-.3,1.2-.7,2.8-1.6,3.5a3.18,3.18,0,0,1-1.8,1h-.5l-.2.3a1.6,1.6,0,0,1-.9.7,2.5,2.5,0,0,1,.4-1.4l-1-.5a4.14,4.14,0,0,0-.5,1.9v.3h-.4v-.3a4.55,4.55,0,0,1,.5-2l-.9-.7a4.2,4.2,0,0,0-.7,2.4,2.1,2.1,0,0,1-.4-1.1,2.72,2.72,0,0,1,.6-1.7l.2-.2v-.4a6.23,6.23,0,0,1,1.1-4,4.55,4.55,0,0,1,3.3-1.6c.4.2.9.3,1.3.5Zm-6.9,3.1v-3.7a1.39,1.39,0,0,1,.7-1.2,2.11,2.11,0,0,1,1.3-.5v2.1c-.2.2-.5.4-.7.6a6.19,6.19,0,0,0-1.3,2.7Zm3.2-4v-1.5a2.84,2.84,0,0,1,1.3.4,1.21,1.21,0,0,1,.5.5,6.36,6.36,0,0,0-1.8.6Zm2-2a4.51,4.51,0,0,0-2.5-.7,4.38,4.38,0,0,0-2.5.8,25.27,25.27,0,0,1,.8-7.2c.7-2.4,1.9-3.9,4.3-4.2Zm-6.3,21v19.8a4.1,4.1,0,0,1-1.1.1,1.7,1.7,0,0,1-.7-.1l-.2-.1V136.1a5,5,0,0,1,1.3.5,1.52,1.52,0,0,1,.7,1.2v14.4a3.42,3.42,0,0,0-.4,1.8,20.24,20.24,0,0,0,.4,2.6Zm-2.7,20.7.5.2a3.59,3.59,0,0,0,1.1.2c.8,0,1.6-.2,2.4-.2h.6a4.79,4.79,0,0,1,2,.7,2.09,2.09,0,0,1,.6.4l.1,1c-1.7-.4-5.7-1.4-7.3-1.8-.1-.2,0-.3,0-.5Zm8.7.6-.6-.1a11.41,11.41,0,0,0-.6-1.5,27.59,27.59,0,0,1-.8-2.7l-.1-.7.9-.2Zm0-5.4,1-.2.3-.1.6,6-.5-.1Zm-1.7,10.3.5.1.3.1a7.6,7.6,0,0,1,1.1.4v3.7h-2Zm4.6-1.4c0,.1-.1.3-.1.4a1,1,0,0,1-.5.6h-.4l-.1-1.3Zm-1.5,2.2h.6a1.69,1.69,0,0,0,1-.3c.1-.1.3-.2.4-.3v4h-2Zm2-5.1-.4-.1-.6-6.5a3.58,3.58,0,0,0,1.1-.4l.2-.1c0,.8,0,2-.1,3.2s-.2,2.8-.2,3.9Zm-.7-7.9a42.93,42.93,0,0,1-5.5,1.4c-.1,0-.2,0-.2-.1a1.42,1.42,0,0,1-.2-.6c.8-.1,2.9-.6,4-.8s2.4-.7,3.3-.9a.75.75,0,0,1-.1.5,5,5,0,0,1-1.3.5Zm.9-6.2,1.4-.6v.6Zm1.6,1.1a4.73,4.73,0,0,0,.7,1.2l.3.4-1.1.8a5.45,5.45,0,0,0-.5-2.2c-.1-.1-.1-.2-.2-.2Zm.3,19.3h.5a3.61,3.61,0,0,0,2-.6c.1,0,.2,0,.2-.1h.1a1,1,0,0,1,.5.4,5.31,5.31,0,0,0,1.7.8,38.9,38.9,0,0,0,4.7.9c-.1.2-.1.2-.2.2a1.73,1.73,0,0,1-1,.1,4.87,4.87,0,0,1-1.2-.1,21.86,21.86,0,0,1-3.6-.3h-.4c-1.3.1-2.5.2-3.8.4-.1,0-.2,0-.2-.4V186a9.67,9.67,0,0,0,.7-1.2Zm8.4.2V160.8l.2-.1a7.84,7.84,0,0,0,1.5-1v25.7a6.07,6.07,0,0,0-1.7-.4Zm1.5-28.3-1.1-.8,1.3-1v.5a1.91,1.91,0,0,1-.2,1.3Zm-1.5-1.2-1.8-1.4,1.8-1.4,1.7,1.3v.1Zm.5-3.2,1.3-1v1.9Zm-.5-.3-1.8-1.4,1.8-1.4,1.7,1.3v.1Zm.5-3.2,1.2-1v1.9Zm-23.3-27.2-3-4.6V104.3a1.43,1.43,0,0,1,1.4-1.4h0a2.1,2.1,0,0,1,1.1.4,1.39,1.39,0,0,1,.5,1Zm0-22.6-3.2-8.7V59c1-1.1,2.1-2.2,3.2-3.2Zm0,3.2a2.82,2.82,0,0,0-3.6.6,3.21,3.21,0,0,0-2.2-1,3.37,3.37,0,0,0-1.7.5l3.8-10.4Zm-4.3-12.4-3.4,9.3V64.2c1.1-1.4,2.2-2.7,3.4-4Zm-2.9,13.5a1.89,1.89,0,0,1,3,1V117l-3.5,5.4V104.3a1.39,1.39,0,0,1,.5-1Zm3.7,14.9,3.5,5.3a19.41,19.41,0,0,0-2.9,2.1v-2.7h-1.2v3.9a18.39,18.39,0,0,0-1.7,2.2,18.83,18.83,0,0,0-1.8,3.8v-8.3Zm-2.4,17.9v51H50V137.8a1.63,1.63,0,0,1,1.7-1.7ZM84,187.6V177.3l1.3-2.4v13.9Zm31,29.6a102.11,102.11,0,0,1-65.8-24h4.4l3.2,2.8h20.8l3-2.7h4.6a83.29,83.29,0,0,0,59.4,0h4.6l2.9,2.7h20.5l3.2-2.7h4.8A101,101,0,0,1,115,217.2ZM157,69.9l2.1,3.2V84.5h-1.5V75l.5-.9L157,72.3l-1.1,1.8.5.8v9.5h-2V73.8Zm-2.6,1.9V42.6c.7.4,1.4.8,2,1.2v25Zm16.1,2.3V84.6h-2.2V75.1l.5-.9-1.1-1.8-1.1,1.8.5.9v9.5h-1.5V73.2l2.1-3.2Zm-2.2-5.4V52.2c.8.6,1.5,1.3,2.2,1.9V72Zm-2,50.4v2.2a15.53,15.53,0,0,0-3.1-.3h0l3.6-5.5,3.7,5.6v1.5a17.6,17.6,0,0,0-3-1v-2.5Zm-3.1-.2V103.5a1.68,1.68,0,0,1,1.4-.6,1.63,1.63,0,0,1,1.7,1.4v10Zm4.2-4.6v-10a1.45,1.45,0,0,1,1.5-1.4,2.84,2.84,0,0,1,1.2.4,2.18,2.18,0,0,1,.5.8V119Zm1.5-12.5a2.61,2.61,0,0,0-2,1,3.21,3.21,0,0,0-2.2-1,3.53,3.53,0,0,0-1.4.3v-.2l3.6-10,3.6,10.1v.4a2.27,2.27,0,0,0-1.6-.6Zm-2-13.3-3.6,10V85.7h7.2V98.5Zm.3-31.1-2.1-3.2L163,57.4V48c1.4,1,2.8,2.1,4.2,3.2Zm-2.1-1.2,2.1,3.2v9.3l-1.5,2.3V63h1V61.8h-1V59.6h-1.1v2.2h-1V63h1v8l-1.5-2.3V59.4Zm-.6,17V84.6H163V75.1l.5-.9-1.1-1.8-1.1,1.8.5.9v9.5h-1.6V73.2l2.1-3.2Zm-2.7-15.8-2.1-3.2-2.1,3.2v-13l4.2,2.7Zm-2.1-1.2,2.1,3.2v9.3l-1.5,2.3V63h1.1V61.8h-1.1V59.6h-1.2v2.2h-1V63h1v8l-1.5-2.3V59.4Zm1.8,29.5V98.3L158,88.6l-3.6,9.9V85.7ZM158,91.9l3.5,9.7v.4a3.19,3.19,0,0,0-1.4-.3,3,3,0,0,0-2.2,1,2.61,2.61,0,0,0-2-1,2.69,2.69,0,0,0-1.5.5v-.4Zm3.5,11.6v15.4l-3-4.6v-10a1.57,1.57,0,0,1,1.7-1.4,1.61,1.61,0,0,1,1.3.6Zm-7.1.8a1.45,1.45,0,0,1,1.5-1.4,1.37,1.37,0,0,1,1.4,1.4h0v10l-2.9,4.5Zm3.5,11.2,3.6,5.5h0a15.26,15.26,0,0,0-3,.3v-2.2h-1.1v2.4a17.1,17.1,0,0,0-3,.9v-1.7Zm4.6,6.7c7.9,0,12.2,3.7,14.6,7.5a18.39,18.39,0,0,1,2.3,5.6,4.15,4.15,0,0,0-1.6-.3,4.07,4.07,0,0,0-2.4.8,16.49,16.49,0,0,0-3.9-7.8,13.88,13.88,0,0,0-6.8-4.4,8.33,8.33,0,0,0-2.2-.3h-.7c-3.1.2-6.1,2.1-8.3,4.7a15.47,15.47,0,0,0-3.8,7.8,3.34,3.34,0,0,0-2.3-.9,3.74,3.74,0,0,0-1.8.5,20.94,20.94,0,0,1,2.4-5.8c2.2-3.8,6.4-7.4,14.5-7.4Zm6.5,71.7v-1.2h1.1v-1.1h1.2v1.1h1.1v1.2h-1.1V195h-1.1v-1.1Zm-23.9-3.3,2-1.8h32.8v1.8Zm18.3,3.3v-1.2h1.1v-1.1h1.2v1.1h1.1v1.2h-1.1V195h-1.2v-1.1Zm-5.5,0v-1.2h1.2v-1.1h1.2v1.1h1.1v1.2h-1.2V195H159v-1.1Zm-5.6,0v-1.2h1.1v-1.1h1.2v1.1h1.1v1.2h-1.1V195h-1.2v-1.1Zm3.3-53v7.8a3.18,3.18,0,0,1-1.6,3.1l-.1-.1a20.29,20.29,0,0,0-2.6-1.1,1.7,1.7,0,0,0-.7-.1,1.4,1.4,0,0,0-1.4,1.2h-.1l-.3-.1a3.52,3.52,0,0,1-1.2-2.9v-7.8Zm-8-1.2v-3.6a2.12,2.12,0,0,1,1.8,1.8v1.8Zm29,39.7c-.2-.2-.4-.4-.6-.4l-.4-.2V137.9a1.92,1.92,0,0,1,1.7-1.8v51h-1.7v-3.3l.8-1.6a6,6,0,0,0,.6-1.9,3.55,3.55,0,0,0-.4-.9Zm-.9.7a.37.37,0,0,1,.1.3,3.26,3.26,0,0,1-.4,1.4l-2.5,4.8h-4.7c0-.1.1-.1.1-.2a2.38,2.38,0,0,1,1.1-.6,6.47,6.47,0,0,1,1-.3l.2-.1,1.8-3.5c.2-.1.6-.5,1.2-.9a6.08,6.08,0,0,1,1.8-.9c.3-.1.3-.1.3,0Zm-1.3,6v1.1h-.6Zm-7.2,1h-1v-6.6l2,.5v4a5.55,5.55,0,0,0-.8.6,1.61,1.61,0,0,0-.3.9,1.27,1.27,0,0,0,.1.6Zm-2.5-8.1.4-1.1,7.2,2.6-.4.3Zm-4.6-3v-.6l4.4.4-1,2.8-.7-.2h-.2l.7-2.1Zm.4,9.8v-.4a8.75,8.75,0,0,0-.2-1.6,11,11,0,0,1-.2-1.8v-1.2a13.42,13.42,0,0,0-.1-2.1l.3.2a4.42,4.42,0,0,0,1.6.6v7.7h-1.7c.1-.4.2-.9.3-1.4Zm-11.3,1.3h-1.6V154a8.79,8.79,0,0,0,1,.6l.8.5V185c-.3,0-.6.1-.6.4v.3a1.69,1.69,0,0,0,.4,1.4Zm0-33.5c-.5-.3-.9-.6-1.4-.9a.52.52,0,0,1-.2-.4v-.1a3.55,3.55,0,0,1,.9.4c.5.2,1,.5,1.4.7a4.42,4.42,0,0,0,1.5.5c.2,0,.3,0,.4-.1a1,1,0,0,0,.4-.5v-.1a1,1,0,0,0-.4-.7,7.58,7.58,0,0,0-1.6-.6h0s0-.1.3-.1a.37.37,0,0,1,.3.1,24.43,24.43,0,0,1,2.4,1,1.06,1.06,0,0,1,.6.7l-.5,1.2-1.2-.1-1.2-.1h-.4c-.3-.2-.7-.5-1.3-.9Zm10.8,1.2-.3.7-4.9-1.7.1-.3Zm-4.9-2.4.6-.6v.7Zm.6-12.7h-2v-3.6a5,5,0,0,1,1.3.5,1.52,1.52,0,0,1,.7,1.2Zm3.1,6.2v7.4l-2-.5V137.9a1.39,1.39,0,0,1,.7-1.2,2.11,2.11,0,0,1,1.3-.5v5.6c-.2.1-.4.3-.6.4a1.74,1.74,0,0,0-.5,1.5,2.66,2.66,0,0,0,1.1,2.2Zm1.9-4.8v.1h-.1a1.27,1.27,0,0,0-.6.1h-.1v-.7c.3.2.5.3.8.5Zm-.8-1.7V136a3.7,3.7,0,0,1,1.8.8l-.2.1a3.39,3.39,0,0,0-.6.6,10.93,10.93,0,0,1-1,1.9Zm.4,3h.3a1.22,1.22,0,0,1,.9.4,2.67,2.67,0,0,0,1.4.7h.2a2.14,2.14,0,0,0,1.7-.8,2.18,2.18,0,0,0,.8.5c-1.2,2.3-2.5,2.6-3.7,2.6h-.3a1.21,1.21,0,0,1,.5-.5l-.8-.8a9.38,9.38,0,0,0-.9,1.2c-.2-.1-.4-.1-.6-.2l.1-.2c.3-.4.6-.7.9-1.1l-.8-.8a10.59,10.59,0,0,0-1,1.2,1.45,1.45,0,0,1-.2-.7,1.14,1.14,0,0,1,.3-.8,1.85,1.85,0,0,1,1.2-.7Zm8.9-4.1a3.92,3.92,0,0,1,.8,1,3.42,3.42,0,0,1,.4,1.8v.5a5.36,5.36,0,0,1-.5-1.1l-1.1.3a5.08,5.08,0,0,0,.9,1.8c-.1.1-.2.1-.3.2a5.24,5.24,0,0,1-1-1.8l-1.1.3a7.74,7.74,0,0,0,.7,1.6c-.2-.1-.4-.1-.6-.2s-.2-.2-.3-.2l-.1-.1-.2-.2h-.6c-.4,0-.8-.2-1-.9v-.2c0-.4.4-.9.8-1.7l.2-.5-.5-.2a8,8,0,0,1-1.6-.8,1.94,1.94,0,0,1-.9-1.4v-.1a1,1,0,0,1,.4-.5,2.28,2.28,0,0,1,1.2-.6,7.72,7.72,0,0,1,1.5-.2,2.58,2.58,0,0,1,2.1.7,1.09,1.09,0,0,1,.4.9,2.92,2.92,0,0,1-.2.9l-.1.4Zm1-1.8a2.1,2.1,0,0,1,1.1-.4v3.4c-.1-.3-.2-.5-.3-.8a2.73,2.73,0,0,0-.9-1.2,2,2,0,0,0,.1-.8.14.14,0,0,1,0-.2ZM159,180.8V182a14.92,14.92,0,0,0,.2,2.1v.3l-.4-.2L156,173.1l1.1-.4.9,2.4a15.19,15.19,0,0,1,1,5.7Zm-.9-8.7.6-.3v1.9Zm-4.5,1.8,1.3-.5,2.6,9.9-.5-.3Zm2.2,9.3a23.92,23.92,0,0,1-2.1,1.3v-7Zm-3.4-9.3.2.4v10.6a8.81,8.81,0,0,1-1.7.2h-.3V155.5c.4,0,1,.1,1.6.1h.4v12.6a3.89,3.89,0,0,0-1.4,3,3.14,3.14,0,0,0,1.2,2.7Zm-.2-2.5h0a2.12,2.12,0,0,1,.4-1.4l1,.8Zm3.7-.3-2.6-2,.6-.6c.5.4,1.6,1.4,2.2,1.9a5.5,5.5,0,0,1,.7.9h-.1l-3.7,1.4c-.1-.1-.2-.3-.3-.4Zm1-5.1a17.68,17.68,0,0,1,3.2-2.1l.6-.3-.1.9-5.3,3.7-.5-.4Zm-.1-1.4v-7.1l2,.8v5c-.7.5-1.4.9-2,1.3Zm11.1-19.6.4.7.1.1-4.4,1.4c0-.1-.1-.3-.1-.4Zm-1.7-.5.6-.9c.1.1.3.1.4.2l.1.3Zm.4,11.8,1.2-.8.2.2.4-.3a2.76,2.76,0,0,0,.6-.6,12.13,12.13,0,0,0-.5,1.4Zm1.5,1a4.5,4.5,0,0,0-.2.8l-4.2.4.1-.1.9-.6Zm-4.7-.2-.6-.9,2.8-2.5,1.2.9Zm4.8,2,.3.6.3.6-6.7.6.2-1.2Zm1.1,2.3v.6l-7.4.7.1-.6Zm.2,1.8.1.6-.8.1-7,.7.1-.6Zm-.2,4.3a21.47,21.47,0,0,0,.7-2.6h.9l-.1-.6s-.2-1.6-.3-2.9a7.66,7.66,0,0,0-1.4-3.2,3.93,3.93,0,0,1,.2-.6c.2-.6.5-1.7,1.1-3.2a16.65,16.65,0,0,0,.8-3.2c.1-.6.1-1.1.2-1.6v27.3a10.91,10.91,0,0,0-1.1-.6l-.9-.4v-8.4Zm1.5-20.7a13.72,13.72,0,0,0-1.6-1.8l-.5-1a3,3,0,0,0,1.6-.5,2.94,2.94,0,0,0,1-1.2v5.4a1.93,1.93,0,0,0-.5-.9Zm-1.5-.1c.2.2.4.5.6.7a.76.76,0,0,1,.2.4v.8a19.42,19.42,0,0,1-.2,2.4,7,7,0,0,1-1.3,2.4c-.3.3-.5.6-.7.8l-3.9-3.1,1.6-3.2Zm-5.2,1.6-1.5,3,.2.2-.4.4c-.1-.3-.1-.6-.2-.8s-.1-.4-.1-.6a1.61,1.61,0,0,1,.3-.9c.2-.3.6-.6,1-1.1Zm-.4,3.9,1,.8-2.7,2.3-.6-.8Zm-1.8-3.6-.3.3a2.35,2.35,0,0,0-.5,1.6,2,2,0,0,0,.1.8c.1.5.3,1.1.4,1.5l-1,1-.7-.2v-7.1a1.27,1.27,0,0,0,.6.1,6.15,6.15,0,0,0,1.4.1Zm-1,7,1.7,2.3a1.56,1.56,0,0,1-.8.6h-.2a2.84,2.84,0,0,1-1.2-.4l-.2-.2Zm.3,4.1-.3,2.5c-.2.1-.5.2-.9.4v-3.4a1.66,1.66,0,0,0,1.2.5Zm-4.5,9.7-.5-.5,4.6-3.2h.1l-.2,1.2Zm4.1,3,.5-2.7.7-4.2,1.4-.1-2.1,8.9-.9-.1Zm3.8-7.1,1.6-.1-3,9.3-.7-.1Zm2.9-.3,1.3-.1c0,.1-.1.3-.1.4a25.48,25.48,0,0,1-1.1,3.5,37.89,37.89,0,0,1-1.8,4.2c-.3.7-.6,1.2-.8,1.6l-.7-.1Zm.6,5.7v4.6a9.36,9.36,0,0,0-1.6-.4h-.2c.4-.9,1.1-2.4,1.8-4.2Zm-2.3,5.3.6.1a11,11,0,0,1,3.3,1.2c1,.5,1.8,1.1,2.3,1.3s1.2.5,2,.8l-.5.3-8-2.9Zm-6.5-19.3-.2.6-4.9-2,.1-.4Zm-3.7.4v8.5c-.8.6-1.4,1.1-2,1.6v-11Zm-4.8,29.2a7.65,7.65,0,0,0,3-.6,19.1,19.1,0,0,0,2.7-1.6l2.8,1.6v.1a1.42,1.42,0,0,1-.2.6c-.2,0-.7-.1-1.6-.1h-.7c-1.9.1-2.7.5-3.9.5h-.3c-1.6-.1-2.2-.2-2.5-.5l-.1-.1a2,2,0,0,0,.8.1Zm8.4-16a7.54,7.54,0,0,1-1.3.6h-.1a2.51,2.51,0,0,0-.4-.7l2.9-1.8-.2,1a2,2,0,0,1-.9.9Zm1.1,6.9,1.5.2-.3.8c-.2-.1-.5-.2-.7-.3a1.79,1.79,0,0,1-.5-.7Zm4.7,3v6.9h-2v-7.4Zm6.2,1.5-1.3,2.5a2.54,2.54,0,0,0-.7.2v-3.2Zm3.1-3.4c-.8-.3-1.6-.6-2-.8V136.1a5,5,0,0,1,1.3.5,1.52,1.52,0,0,1,.7,1.2Zm-2.5-43.4a5,5,0,0,0-2.1.5c-.1-.1-.2-.3-.3-.4l-.1-.1a22.62,22.62,0,0,0-1-7.8c-.1-.3-.2-.5-.3-.8a19.4,19.4,0,0,1,2.6,2.3,15.3,15.3,0,0,1,3.6,6.9,5.33,5.33,0,0,0-2.4-.6Zm-3.7-.7a4.67,4.67,0,0,0-1.7-.3,11,11,0,0,0-1.8.2,3.46,3.46,0,0,0-1.6.8V124.3c.3,0,.6.1.9.1l.2.1a4.57,4.57,0,0,1,3,2.9,17.57,17.57,0,0,1,1,6.8Zm-4.6,4.5,1.2.6a4.42,4.42,0,0,0-.6,1.6.9.9,0,0,0,.1.5v.1a1.64,1.64,0,0,1-1.1.7h0a2,2,0,0,1-.9-.5c-.1-.1-.3-.2-.4-.3s.1-.5.1-.7a.71.71,0,0,0-.3-.6l-.6-.3c.3-.5.5-.9.7-1.3v.9a1,1,0,0,0,.7.2,2.2,2.2,0,0,0,.8-.1,2.19,2.19,0,0,0-.3-.5,2.22,2.22,0,0,0-1.1-.5c.1-.1.1-.2.2-.3l.3-.3.3-.3a2.55,2.55,0,0,0,.9,1.1Zm-4.2-3.8a4.38,4.38,0,0,0-2.5.8,26,26,0,0,1,.8-7.3c.7-2.4,1.9-3.9,4.3-4.1v11.3a4.84,4.84,0,0,0-2.6-.7Zm-2.9-6.8a28.09,28.09,0,0,0-.8,7.6,4.38,4.38,0,0,0-2.5-.8,3.89,3.89,0,0,0-2.3.7,16.17,16.17,0,0,1,3.5-6.9,11.39,11.39,0,0,1,3.1-2.7,6.81,6.81,0,0,0-1,2.1Zm-5.2,8.5a2.11,2.11,0,0,1,1.3-.5v3.6h-2v-1.8a1.71,1.71,0,0,1,.7-1.3Zm27.1,50.5v-51a1.91,1.91,0,0,1,1,.5,2.62,2.62,0,0,1,.5.9v49.6Zm-.3-58a17.68,17.68,0,0,0-1.6-2.2v-4h-1.2v2.8a20.14,20.14,0,0,0-2.9-2.2l3.5-5.3,4.1,6.3v8.4a16.88,16.88,0,0,0-1.9-3.8Zm-1.6-12.1V104.3a1.57,1.57,0,0,1,1.7-1.4,2.84,2.84,0,0,1,1.3.4,1.05,1.05,0,0,1,.5.9v18.1Zm3.4-14.7a3.45,3.45,0,0,0-1.8-.5,2.87,2.87,0,0,0-2.2,1,2.61,2.61,0,0,0-2-1,2.82,2.82,0,0,0-1.5.4L176,91.8Zm-3.1-12.1V60.3c1.1,1.3,2.2,2.5,3.2,3.9V99.1Zm-1.2-.2-3.2,8.9V55.7c1.1,1.1,2.2,2.2,3.2,3.3Zm-1.7,13a1.52,1.52,0,0,1,1.5,1.4V117l-2.9,4.5V104.2a1.17,1.17,0,0,1,1.4-1.2Zm-24.3,1.4a1.43,1.43,0,0,1,1.4-1.4h0a2.84,2.84,0,0,1,1.2.4,1.23,1.23,0,0,1,.5,1v17.5l-3.1-4.8V104.4Zm3.1-5.2-3.2-9v-50a31.82,31.82,0,0,1,3.2,1.6Zm0,3.1a3,3,0,0,0-1.6-.5,2.61,2.61,0,0,0-2,1,3.21,3.21,0,0,0-2.2-1,3.37,3.37,0,0,0-1.7.5l3.8-10.4Zm-4.3-12.2-3.2,9V38.2c1.1.4,2.2.9,3.2,1.3Zm-2.8,13.3a1.92,1.92,0,0,1,1.2-.4,1.63,1.63,0,0,1,1.7,1.4V117l-3.4,5.2V104.3a1.05,1.05,0,0,1,.5-.9Zm3.5,14.9,3.4,5.3a14.63,14.63,0,0,0-2.8,2.1V123h-1.1v3.8a17.68,17.68,0,0,0-1.6,2.2,25.28,25.28,0,0,0-1.8,3.7v-8.5ZM145,138a1.61,1.61,0,0,1,.6-1.3,1.27,1.27,0,0,1,.9-.4v38.6l-1.5-2.7V138Zm.8,39.4v10.3l-1.3,1.2V175Zm41.4,10c-1.5,1.5-3.1,3-4.7,4.4V164.4a83.58,83.58,0,0,0,0-98.7V61.9l-1.3-2.2-1.3,2.2v.4a98.36,98.36,0,0,0-7.6-8.2V52.2l-1.8-2.4v2.8a81.39,81.39,0,0,0-16.1-11.2V39.9l-1.8-2.6v3.1A73.49,73.49,0,0,0,145,37V33l-1.3-2.2-1.3,2.2v3a77.48,77.48,0,0,0-11.7-3.1v-14l-.9-1.1-.9,1.1V32.6a25.12,25.12,0,0,0-2.7-.4V13.4a102.34,102.34,0,0,1,61,174Zm-.1-80.1v-1H186v1h-1v1.2h1v2.2l-3.4,5.3V96.1l7.9,11.3v8.3l-3.4-5.1v-2.2h1v-1.2Zm-.6,4.5,3.9,6v2.8a3.37,3.37,0,0,0-1.7-.5,3.21,3.21,0,0,0-2.2,1,3.21,3.21,0,0,0-2.2-1,3.74,3.74,0,0,0-1.8.5V118Zm2.8,20.5a2.74,2.74,0,0,0-1.6-2.5h2.7v5h-2.6a3,3,0,0,0,1.5-2.5Zm-2.8,2.2a2.2,2.2,0,1,1,2.2-2.2h0a2.22,2.22,0,0,1-2.2,2.2Zm.6-6.5v-5.3a1.54,1.54,0,0,1,1.6-1.4,2.14,2.14,0,0,1,1.2.4,1.05,1.05,0,0,1,.5.9V128Zm-4.1-6.3a1.57,1.57,0,0,1,1.3-.4,1.48,1.48,0,0,1,1.6,1.4V128h-3.4v-5.4a1.05,1.05,0,0,1,.5-.9Zm2.3,8.1a2.85,2.85,0,0,0-1.3,3.7,3.25,3.25,0,0,0,1.3,1.3h-2.8v-5Zm6.9,6.7V91.9l-.9-1.4-.9,1.4v13.6l-7.9-11.3V67.7a82.57,82.57,0,0,1,0,94.7V136.5Zm-4.6-19.5-1.1-1.8-1.1,1.8,1.1,1.8Zm-36.8-88.8,1.1.5.5-1,1,.5.5-1.1-1-.5.5-1-1.1-.6-.5,1-1-.5-.5,1.1,1,.5Zm-.2,3-1.1-.5-.5,1-1-.5-.5,1.1,1,.5-.5,1,1.1.5.5-1,1,.5.5-1.1-1-.5ZM194,59.8h0l.1-1.8-1.8-.2h0v.7l-5.8,4.5-.3-.1-.1-1.5,5.2-4a.61.61,0,0,1,.7-.1l.1-.1V55.1l-1.9-.2h-.1a1.16,1.16,0,0,1,.2,1l-5.4,4.2a.66.66,0,0,1-.6.1l-.1.1.3,2.6c1.2.4,2.4.8,3.6,1.3l5.2-4c.2-.4.5-.5.7-.4Zm-29.6-21.1-1-.7-.6,1-1-.6-.6,1,1,.6-.6,1,1,.7.6-1,.9.6.6-1-.9-.6Zm-37.3,35.4,1.1,1.8,1.1-1.8-1.1-1.8Zm34.3-39h0l-1.9-2.1,3.8-1.4-.2-.4-.6.3a12,12,0,0,1-1.5-2.4,20.32,20.32,0,0,1-4.3-.7l-1.3,2.5a.71.71,0,0,1-.6.3v.1l2,2.3-4.9,1.9.2.3.9-.3a22,22,0,0,1,2,2.3,21.19,21.19,0,0,1,4.4.4l1.5-2.8a.55.55,0,0,1,.5-.3Zm-4.3,2.4h-.3a12.66,12.66,0,0,0-2.1-2.5l3.2-1.3.8.8Zm1.2-4.5-.8-1,1.4-2.7h.2a12.71,12.71,0,0,0,1.8,2.7Zm25.9,15.4h0l-.4-2.4-1.9-.1-.3-2a6.05,6.05,0,0,1-1.9,0l-.1.1c.3.3.6.8.5.9l-4.8,5c-.2.2-.4.3-.6.2l-.1.1.2,1.8h1.8l-.1-.7,4.8-5,.8.1.2,1.1-4.6,4.8c-.4.4-.6.2-.6.2l-.1.1.4,2.1h1.9l.1-.1a1.8,1.8,0,0,1-.4-.9l4.7-4.9a.51.51,0,0,1,.5-.4Zm3.3,4.5a1.06,1.06,0,0,1,.5-.2l.1-.1-.1-2.1a12.1,12.1,0,0,1-1.9-.1H186s.7.7.3,1.1l-5,4.5c-.4.4-.7.2-.7.2l-.1.1.2,2.1,1.9.1h.1a1.61,1.61,0,0,1-.3-.9Zm-14.7-5.3s4.1-5.2,4.3-5.5a.48.48,0,0,1,.6-.2v-.1l-.4-1.8-1.8.2h0l.2.7-4.3,5.5h-.9l-.4-1,4.1-5.3c.3-.4.6-.3.6-.3l.1-.1-.6-2-1.9.2V38a1.93,1.93,0,0,1,.5.9l-4.2,5.4a.37.37,0,0,1-.5.2l-.1.1.7,2.3,1.9-.1.5,1.9a12.25,12.25,0,0,1,1.9-.2v-.1c0-.1-.4-.6-.3-.8ZM96.17,213.2l2-1.5v-.8a16.27,16.27,0,0,0-2.3,1.1Zm95.3-163.7H189s-.4.5-.5.6a18.43,18.43,0,0,0,2.5.5,2.22,2.22,0,0,0,.5-1.1Zm-82.7-24.2-1.1-1.8-1.1,1.8,1.1,1.8ZM105.27,41l-1.1-1.8-1.1,1.8,1.1,1.8Zm-61.5,92.8v-.9h.9v-1.1h-.9v-.9h-1.1v.9h-.9v1.1h.9v.9ZM119.47,41l-1.1-1.8-1.1,1.8,1.1,1.8Zm-3.4-18.9L115,20.3l-1.1,1.8,1.1,1.8ZM42.17,117l1.1,1.8,1.1-1.8-1.1-1.8Zm81-91.6-1.1-1.8L121,25.4l1.1,1.8ZM48.37,50.7h0l2.4-.5.6,3.9a7.86,7.86,0,0,1,2.6-.8,21.9,21.9,0,0,1,1.2-3.3L53,47.7a.61.61,0,0,1-.1-.6l-.1-.1-2,.6-.5-3.1a8.31,8.31,0,0,1-2.7.3,13,13,0,0,1-1.4,3.2l1.9,2.1A.45.45,0,0,1,48.37,50.7Zm3.5-1.7,2.3,2.5-.1.3a12.21,12.21,0,0,0-2.6.6L51,49.3Zm-4.4-2.6a12.41,12.41,0,0,0,2.7-.3l.3,2.5-1,.2-2.1-2.2ZM58,40.8a5.76,5.76,0,0,0-.5,2.9,3.87,3.87,0,0,1,2.6,0v-3a5.38,5.38,0,0,1,.8-2.8l.5-.8a4.89,4.89,0,0,1,2.4.1V35a3.35,3.35,0,0,1,.6-2.4H65c2,0,3.4-.1,4.4-.8a8.24,8.24,0,0,0-.7,3.1v2.8l-.1.2a3.26,3.26,0,0,1-1.9.8h-2.6a9.64,9.64,0,0,1,0,2.4,6.2,6.2,0,0,0,2.3-.4,5.07,5.07,0,0,0-.4,2.4,6.15,6.15,0,0,1,2.7,0V40.2a4.13,4.13,0,0,1,.4-2.2,7.39,7.39,0,0,1,2.1,0V33.2c0-.9-.2-3.3.5-4.4l.9-1.3-.3-.2-.2.4-.8,1.3-.1.2A4.2,4.2,0,0,1,68,30.3h-1.8c-.9,0-1.4-.4-1.4-.7h-.5v2.7a6.82,6.82,0,0,1-.7.5,3.26,3.26,0,0,1-1.9.8h-2.1a8.85,8.85,0,0,1,0,2.3,6.15,6.15,0,0,0,1.9-.2,5.85,5.85,0,0,0-.2,1.3l-.6.9a3.86,3.86,0,0,1-2.2,1.1h-3a9.64,9.64,0,0,1,0,2.4,14.86,14.86,0,0,0,2.5-.6Zm21.2-9.6a4.51,4.51,0,0,0-.5,2.5,6.15,6.15,0,0,1,2.7,0V30.9a8.33,8.33,0,0,1,.3-2.2l1-1.5a7.51,7.51,0,0,0,2.6-.5,4,4,0,0,0-.5,2.4,5.28,5.28,0,0,1,2.5,0V26.5a3.08,3.08,0,0,1,.4-2.1l1.4-2.2H92l-1.5,1.7a4.25,4.25,0,0,0-1,3.2,5.7,5.7,0,0,1,2.6,0V24.4a5.58,5.58,0,0,1,.3-2.2,4.86,4.86,0,0,1,3.5,2l.3-.2-1.5-2.4a5.21,5.21,0,0,0-4.3-2h-7.3a2.4,2.4,0,0,1,.2,2.2,3.46,3.46,0,0,1-2.1,1h-3a9.64,9.64,0,0,1,0,2.4c1.8,0,3.2-.3,4.4-1.9l1-1.3h5.1l-1,1.5a3.86,3.86,0,0,1-2.2,1.1h-3a7.39,7.39,0,0,1,0,2.1l-.8,1.3a3.72,3.72,0,0,1-2.2,1h-2.6a9.64,9.64,0,0,1,0,2.4,5.83,5.83,0,0,0,2.3-.2Zm11.1,88.6h1.1v-.9h.9v-1.2h-.9v-.9h-1.1v.9h-.9v1.2h.9Zm1.6-39.3-1.1-1.8-1.1,1.8,1.1,1.8ZM99,126.8h1.1v-.9h1v-1.2h-1v-.9H99v.9h-.9v1.2H99Zm2.6-54.5-1.1,1.8,1.1,1.8,1.1-1.8Zm28.1,54.5h1.1v-.9h.9v-1.2h-.9v-.9h-1.1v.9h-.9v1.2h.9Zm-88-77.1a10.68,10.68,0,0,0,.3-2.5,5.64,5.64,0,0,0-1.2-.4l.3,2.5a2.09,2.09,0,0,1,.6.4Zm87.9,10.1h1.1V58.7h1.1V57.5h-1.1V56.3h-1.1v1.2h-1.2v1.2h1.2ZM126.77,41l-1.1-1.8-1.1,1.8,1.1,1.8Zm-1.6,18.8h1.1V58.6h1.2V57.4h-1.2V56.2h-1.1v1.2H124v1.2h1.2Zm-34.4,61.4a2.8,2.8,0,0,0,0-5.6,2.8,2.8,0,0,0-2.8,2.8,2.86,2.86,0,0,0,2.8,2.8Zm0-5a2.2,2.2,0,1,1-2.2,2.2h0A2.22,2.22,0,0,1,90.77,116.2Zm-47-60.4h0l-2,.9-.9-3a7.71,7.71,0,0,1-2.6.7,20.25,20.25,0,0,1-.9,3.3l2.2,1.8a.48.48,0,0,1,.2.6h.1l2.2-.9,1.2,3.8a11.51,11.51,0,0,1,2.5-1.2,18.57,18.57,0,0,1,.6-3.4l-2.5-2c0-.2-.1-.4-.1-.6Zm-3,2.2-2.4-1.9v-.2a13.43,13.43,0,0,0,2.7-.7l.7,2.4Zm5,2.2a17.25,17.25,0,0,0-2.4,1l-1-3,.8-.4,2.6,2.1ZM94.17,206h-3a1.22,1.22,0,0,1-.9-.4V205a4.19,4.19,0,0,0-.4-1.5,5.85,5.85,0,0,0,1.3.2h1.1a2.77,2.77,0,0,1-.3-1.3,5.85,5.85,0,0,1,.2-1.3h-3.7a2.33,2.33,0,0,1-1.7-1l-.1-.1a18.45,18.45,0,0,1-1-1.6h-4a3.44,3.44,0,0,0,1.6-1.3c.3-.4.7-1,.7-1l-1.9-1s-1.1,1.7-1.4,2.2a2.51,2.51,0,0,1-2.2,1.2h-.3a4.47,4.47,0,0,1-4-1.9l-.3.2,1.6,2.4,1.8,2.8a7.25,7.25,0,0,1,.7,3.3v2.4a10.45,10.45,0,0,1,2.5,0v-1.4a3.85,3.85,0,0,0-.6-1.8,4,4,0,0,0,1.5.3h1.3a4.87,4.87,0,0,1-.1-1.2,4.1,4.1,0,0,1,.1-1.1h-3.3a3.09,3.09,0,0,1-2-1.1l-.8-1.3a7.66,7.66,0,0,0,3.7.7h6.5a8.57,8.57,0,0,1,.7,3.6v1.5a12.19,12.19,0,0,1,2.7,0v.1a4.53,4.53,0,0,1,.3,1.6v2.5a4.11,4.11,0,0,1,2.2,0,3.72,3.72,0,0,0-.5-2.3,3.55,3.55,0,0,0,1,.2h1.1a1.16,1.16,0,0,1-.2-1,1.15,1.15,0,0,1,.1-1Zm-63-121.7c.4.7.1.9-.8,1.6l-6.2-2.2-.2-.4a8.65,8.65,0,0,1,2.3-.6v-.1a8.64,8.64,0,0,1-1-1.6h-.1l-2.3.8.8,1.7-1.6.9a9.82,9.82,0,0,1,.8,1.8H23a1.36,1.36,0,0,1,.6-.8l6.3,2.2a.66.66,0,0,1,.4.5h.1a20,20,0,0,1,2.2-1.9L31.47,84Zm19.4-29.6h0a3.55,3.55,0,0,1-.9.4l-5-4.6c-.2-.1-.2-.3-.2-.5l-.1-.1-2.1.3a12.1,12.1,0,0,1,.1,1.9h.1s.6-.7,1-.4l5,4.5c.4.4.2.6.2.6l.1.1,2.1-.4ZM35.17,76.6a2.34,2.34,0,0,1-.7.7l-6.8-3a.78.78,0,0,1-.4-.4h-.1l-2.4,1.6a10.46,10.46,0,0,1,.6,3.6l5.9,2.6a.66.66,0,0,1,.4.5h.1l2.3-1.4.9,1.9,1.9-1.5-1.7-4.6Zm-3.1,3.3-6.5-2.8V77l1.5-1,6.1,2.7.2.5Zm2.3.8-.8-1.8,2.2,1Zm3.2-9.7c.3.8-.4,1.1-1.6,1.8l-2-1.2a18,18,0,0,1-.8-3.9h-3.5a18.7,18.7,0,0,1-.3,3.4l5.9,3.3a.6.6,0,0,1,.3.6h.1a14.92,14.92,0,0,1,3-1.8L38,70.8ZM30,69.5l3-.1.5,2Zm11.1-2.8,2-.8-.5-1.9h-.1a1.56,1.56,0,0,1-.8.6L36,60.9a.55.55,0,0,1-.3-.5h-.1l-2.2,1,.2,1.8-1.9.7a12.86,12.86,0,0,1,.4,1.9h.1c.2-.3.7-.7.8-.6l5.9,3.7a.6.6,0,0,1,.3.6h.1L41,69l-.4-1.8h-.1l-.7.3-5.9-3.8-.1-.8,1-.5,5.7,3.6c.5.3.3.6.3.6Zm29.6,32,1.1,1.8,1.1-1.8-1.1-1.8Zm10.4,1.8,1.1-1.8-1.1-1.8L80,98.7Zm-27.2,0L55,98.7l-1.1-1.8-1.1,1.8Zm-28-8a25.28,25.28,0,0,1-1.8-3.7H24l-3.3.9a18.57,18.57,0,0,1,.6,3.4l6.5,1.7a1,1,0,0,1,.5.4h.1a20.35,20.35,0,0,1,2.5-2.6l-1.3-2.1-.3.2c.5.7-.1,1.2-1.1,2.2Zm-4.4-1.2,2.8-.8s.6,1.1,1,1.8Zm42.6,7.3L63,96.8l-1.1,1.8,1.1,1.8Zm-41,13a19.28,19.28,0,0,1-2.7-3h-.1l-3,1.7a17.72,17.72,0,0,1,1.5,3.1h6.7a.71.71,0,0,1,.6.3h.1a30.71,30.71,0,0,1,1.7-3.1l-1.7-1.6-.2.3c.6.5.2,1.1-.5,2.4Zm-4.6,0,2.6-1.5a19,19,0,0,0,1.5,1.5Zm10.6,27.6-6.2,2.1a.66.66,0,0,1-.6-.1h-.1l-.7,2.2,2,1.2-3.2,1.1-.8,1.7a5.56,5.56,0,0,1,1.7.9h.1c-.1-.4-.1-1,0-1l9.5-3.2c.5-.2.7.1.7.1h.1l.7-2-1.7-.8h-.1a1.73,1.73,0,0,1-.1,1l-6.5,2.2-.7-.4.3-1.1,6.8-2.2a8.65,8.65,0,0,1,2.3-.6V140c-.1,0-2.1-1.2-3.5-.8ZM16,106.9h.1s.1-1,.6-.9l9.5,1.1c.5.1.6.4.6.4h.1l1.4-1.6-1.2-1.4a1.37,1.37,0,0,1-.5.8l-9.7-1.2a.55.55,0,0,1-.5-.3h-.1l-1.5,1.5C15.27,105.9,15.57,106.4,16,106.9Zm9.6,29a17.91,17.91,0,0,1-3.4-2.2h-.1l-2.4,2.5a18.63,18.63,0,0,1,2.3,2.6l6.4-1.9a.61.61,0,0,1,.6.1h.1a22.07,22.07,0,0,1,.8-3.5l-2.2-1.1-.2.3c.8.3.5,1,.2,2.4Zm-4.4,1.3,2-2.2s1,.6,1.8,1.1Zm-4.6-35.8c.1-.4.4-.9.5-.9l9.3,1.8a.66.66,0,0,1,.5.4H27l2-2.1-1.4-3.4L21.27,96a.85.85,0,0,1-.5-.3h-.1l-1.9,2,.9,1.5L17,98.7l-1.6,1.1a6.1,6.1,0,0,1,1.2,1.6Zm4.5-3.6,7,1.3v.1l-1.2,1.3-6.7-1.3-.2-.3Zm4.8,27.1,1.3,1.3a7.41,7.41,0,0,0,1.3-1.2l-1.3-1.3a3.8,3.8,0,0,0-1.3,1.2Zm-7.6,6.3,1.6,1H20a1.8,1.8,0,0,1,.2-1l3.1-2.3,6.2,2.1c-.3-.6-.6-1.3-.9-2a104.6,104.6,0,0,1-10.1-3.5h-.1l-.9,1.6,1.5,1h0c-.1-.3.3-.7.3-.7l2.3.7-2.9,2Zm12.8,17.6a8.63,8.63,0,0,0,.2,2.8c-1-.9-2.1-1-3.7-1a6.15,6.15,0,0,1,0,2.7H30a7.65,7.65,0,0,1,3.2,1.1l.6.9a4.13,4.13,0,0,0-2.2-.4,8.1,8.1,0,0,1,0,2.2h2.1a3.39,3.39,0,0,1,1.8.7v2.1a9.82,9.82,0,0,0,1.9,5.4l.3.4c-1-.7-1.8-.6-3.7-.6l-.2-.3-3.2-4.8a3.4,3.4,0,0,1-.3-2v-2.4a5.28,5.28,0,0,1-2.5,0,3.35,3.35,0,0,0,.6,2.4,8.33,8.33,0,0,0-2.2-.3,8.1,8.1,0,0,1,0,2.2h2.5a2.81,2.81,0,0,1,2.1,1l.9,1.4c-.9-.7-1.8-.8-3.4-.8a6.6,6.6,0,0,1,0,2.8h2.8a4.31,4.31,0,0,1,2.2.9,3.6,3.6,0,0,1,.2,2.3l2.1.1a6.65,6.65,0,0,1,5,2.7l.3.5a4.67,4.67,0,0,0,.3,1.7c-1.8-2.1-2.6-2-6.4-2a6,6,0,0,1,.1,2.3h3.2a5.94,5.94,0,0,1,4.5,2.5l.2.4c.8,1.2,1.5,2.1,1.5,2.1l.3-.2s-.5-.8-.8-1.2c-.5-.9-.6-3.4-.6-4.7V163a6.47,6.47,0,0,1-2.4-.1v7l-1.7-2.6-.7-1.1c-.5-.9-.6-3.5-.6-4.8v-.9c0-.6,0-2.6.8-2.6v-.4h-3l-.1-.1-1.6-2.3a5.87,5.87,0,0,1-.4-2.3V149a9.34,9.34,0,0,1-2.4-.2Zm-11.8-27.2,6.5-.5a.71.71,0,0,1,.6.3h.1l1.4-2.6-2.3-2.9-7,.6a.76.76,0,0,1-.5-.2H18c-1.1,2-2.1,3.6-3.4,5.6a6.53,6.53,0,0,1,1.6,1.3h.1a21,21,0,0,1,1.8-3.4Zm-.4-3.4,7.6-.6-.8,1.6-7.2.6-.3-.4Z" transform="translate(-9.97 -10.1)"/></svg>